<svg version="1.1" id="Layer_1" xmlns="http://www.w3.org/2000/svg" xmlns:xlink="http://www.w3.org/1999/xlink" x="0px" y="0px"
	 width="100%" viewBox="0 0 400 400" enable-background="new 0 0 400 400" xml:space="preserve">
<path fill="transparent" opacity="1.000000" stroke="none"
	d="
M224.000000,401.000000
	C149.356506,401.000000 75.213013,401.000000 1.034760,401.000000
	C1.034760,267.731506 1.034760,134.462997 1.034760,1.097249
	C134.226776,1.097249 267.453644,1.097249 400.840271,1.097249
	C400.840271,134.333176 400.840271,267.666565 400.840271,401.000000
	C342.129730,401.000000 283.314880,401.000000 224.000000,401.000000
M259.009979,53.508987
	C253.833740,51.059731 248.737518,48.421158 243.467484,46.193825
	C220.019638,36.283817 195.829742,32.015892 170.339462,35.894909
	C146.984970,39.448906 127.248726,50.579185 109.055519,64.656776
	C95.745583,74.955772 84.312241,87.317841 73.833138,100.570503
	C56.292969,122.753113 43.165272,147.198059 35.361965,174.378113
	C29.010975,196.499527 26.663256,219.055649 31.150700,241.802368
	C38.001019,276.526367 57.232841,303.742920 84.359703,325.561646
	C99.357376,337.624603 115.646843,347.762268 133.524261,355.356262
	C148.301483,361.633301 163.501221,366.094788 179.360840,367.873566
	C194.512939,369.572998 209.658691,369.289459 224.918839,367.224091
	C244.367859,364.591827 262.608917,358.598175 280.132996,350.262695
	C288.855164,346.113922 296.888306,340.541534 305.408875,335.938477
	C321.974609,326.989105 336.316895,315.695892 348.084229,300.696106
	C364.299225,280.026855 371.571198,256.533264 372.897339,230.840698
	C373.245117,224.102600 372.950806,217.199127 371.868347,210.547852
	C369.818695,197.953400 368.210632,185.081741 364.235718,173.046341
	C354.287537,142.924881 336.025909,117.816605 313.793945,95.527100
	C307.881500,89.599327 301.749847,83.765411 295.066833,78.758705
	C283.528717,70.114754 271.480103,62.152317 259.009979,53.508987
z"/>
<path fill="#658DFD" opacity="1.000000" stroke="none"
	d="
M259.327820,53.706463
	C271.480103,62.152317 283.528717,70.114754 295.066833,78.758705
	C301.749847,83.765411 307.881500,89.599327 313.793945,95.527100
	C336.025909,117.816605 354.287537,142.924881 364.235718,173.046341
	C368.210632,185.081741 369.818695,197.953400 371.868347,210.547852
	C372.950806,217.199127 373.245117,224.102600 372.897339,230.840698
	C371.571198,256.533264 364.299225,280.026855 348.084229,300.696106
	C336.316895,315.695892 321.974609,326.989105 305.408875,335.938477
	C296.888306,340.541534 288.855164,346.113922 280.132996,350.262695
	C262.608917,358.598175 244.367859,364.591827 224.918839,367.224091
	C209.658691,369.289459 194.512939,369.572998 179.360840,367.873566
	C163.501221,366.094788 148.301483,361.633301 133.524261,355.356262
	C115.646843,347.762268 99.357376,337.624603 84.359703,325.561646
	C57.232841,303.742920 38.001019,276.526367 31.150700,241.802368
	C26.663256,219.055649 29.010975,196.499527 35.361965,174.378113
	C43.165272,147.198059 56.292969,122.753113 73.833138,100.570503
	C84.312241,87.317841 95.745583,74.955772 109.055519,64.656776
	C127.248726,50.579185 146.984970,39.448906 170.339462,35.894909
	C195.829742,32.015892 220.019638,36.283817 243.467484,46.193825
	C248.737518,48.421158 253.833740,51.059731 259.327820,53.706463
M164.847763,319.206360
	C163.731033,318.239594 162.597870,317.291077 161.500183,316.303162
	C152.375305,308.090973 142.583328,300.496674 134.265976,291.534241
	C111.435638,266.933258 96.352928,237.811768 85.770004,206.073349
	C77.290497,180.643173 74.420906,155.021713 80.037003,128.656174
	C80.723862,125.431587 81.366043,122.197472 82.028938,118.967773
	C81.561478,118.787361 81.094017,118.606956 80.626556,118.426552
	C74.732269,128.947678 68.495697,139.296692 63.083233,150.060120
	C60.233917,155.726395 58.824482,162.116730 56.265472,168.652832
	C49.929699,187.553574 46.025578,206.666473 47.659550,226.901367
	C48.955009,242.944138 53.892742,257.678986 61.323185,271.489105
	C69.053658,285.856903 80.030815,297.797333 92.563385,308.423737
	C115.005753,327.452667 139.876404,341.425018 168.860138,347.618469
	C185.926025,351.265198 203.044052,352.447388 220.547531,349.219116
	C218.006973,347.469086 215.371857,345.890961 212.529480,344.918701
	C195.356003,339.044342 179.927231,329.900024 164.847763,319.206360
M336.100128,150.082352
	C335.431732,147.721359 335.225555,145.085831 334.014679,143.047043
	C328.847229,134.346634 323.744141,125.570038 317.953094,117.285736
	C305.175659,99.007095 289.815491,82.967117 271.281128,70.629700
	C242.257553,51.310154 210.228165,44.377464 175.726120,51.183876
	C147.837112,56.685696 125.578056,70.772079 110.478798,95.284142
	C109.649994,96.629631 109.440842,98.356834 108.455002,100.402077
	C106.632256,103.503448 104.387474,106.434639 103.056892,109.734459
	C95.726936,127.912720 93.432098,146.903992 94.889641,166.342377
	C96.517960,188.058304 100.385406,209.295990 107.839600,229.904938
	C118.532837,259.468964 134.899033,284.884277 159.944962,304.282501
	C175.886002,316.628876 193.423187,326.071655 213.322632,329.761963
	C224.007507,331.743408 235.108246,331.945374 246.032364,332.084595
	C275.584534,332.461212 301.972565,323.661377 323.711334,303.115082
	C340.969116,286.804016 352.313477,267.128784 355.095490,243.202728
	C357.005066,226.780136 356.791687,210.416794 353.048553,194.146774
	C349.531006,178.857391 345.514282,163.849335 336.100128,150.082352
z"/>
<path fill="#01BFB5" opacity="1.000000" stroke="none"
	d="
M336.148895,150.883362
	C345.514282,163.849335 349.531006,178.857391 353.048553,194.146774
	C356.791687,210.416794 357.005066,226.780136 355.095490,243.202728
	C352.313477,267.128784 340.969116,286.804016 323.711334,303.115082
	C301.972565,323.661377 275.584534,332.461212 246.032364,332.084595
	C235.108246,331.945374 224.007507,331.743408 213.322632,329.761963
	C193.423187,326.071655 175.886002,316.628876 159.944962,304.282501
	C134.899033,284.884277 118.532837,259.468964 107.839600,229.904938
	C100.385406,209.295990 96.517960,188.058304 94.889641,166.342377
	C93.432098,146.903992 95.726936,127.912720 103.056892,109.734459
	C104.387474,106.434639 106.632256,103.503448 108.976364,100.241478
	C110.073761,99.718147 110.732162,99.441216 111.213097,98.979446
	C116.099503,94.287796 120.604530,89.121284 125.887421,84.934502
	C142.974838,71.392464 163.194946,67.050323 184.351730,67.187172
	C194.871811,67.255219 205.477875,68.926659 215.862198,70.856598
	C226.022461,72.744896 236.191879,75.199707 245.922791,78.636131
	C260.006287,83.609650 273.398590,90.191551 285.756531,98.827454
	C299.637268,108.527496 312.188568,119.532822 322.446564,133.065964
	C326.972290,139.036713 331.578979,144.946106 336.148895,150.883362
M226.795013,170.628113
	C226.027252,169.528152 224.899277,168.530685 224.552322,167.311020
	C222.782898,161.090866 221.601929,154.671524 219.384872,148.626328
	C218.510895,146.243286 215.715027,143.385757 213.388397,142.959427
	C208.492081,142.062225 203.321747,142.918991 199.619247,146.939102
	C195.970428,150.900909 198.234528,155.051956 199.803558,159.066956
	C205.778885,174.357193 207.384018,190.334885 206.852859,206.548920
	C206.532104,216.339539 205.305038,226.097733 204.830078,235.887238
	C204.600357,240.622253 207.061523,242.846100 211.766113,243.109116
	C213.591339,243.211151 215.427155,243.126419 217.258148,243.122971
	C226.161957,243.106171 228.332657,241.107162 229.152115,232.198334
	C229.642166,226.870743 230.148254,221.544647 230.647125,216.217880
	C231.132675,216.113205 231.618210,216.008514 232.103760,215.903824
	C234.253784,221.702850 236.419174,227.496231 238.550140,233.302246
	C241.549103,241.473221 246.091080,244.643250 252.368973,242.907791
	C258.250916,241.281769 260.316986,236.781448 259.072723,228.298233
	C259.024475,227.969238 258.947876,227.644363 258.883911,227.317688
	C256.265839,213.946854 251.410828,201.469742 243.797150,190.140945
	C242.330719,187.958984 242.059128,186.559113 243.856598,184.121140
	C250.580185,175.001740 256.552948,165.413422 259.397949,154.222778
	C260.668365,149.225601 258.849274,144.779495 254.813629,143.613693
	C249.235718,142.002380 242.177765,145.169754 240.109497,149.051437
	C236.251740,156.291672 231.679230,163.151093 226.795013,170.628113
M155.037094,188.430206
	C151.473282,186.428940 148.061493,184.064377 144.316101,182.496948
	C134.490524,178.384964 130.307144,181.364319 130.830978,191.732971
	C131.076859,196.599854 134.226807,199.309067 138.758072,197.487564
	C144.335678,195.245438 149.501022,191.977753 155.037094,188.430206
M210.344543,269.982483
	C208.284088,274.274902 205.861526,278.437653 204.265045,282.896210
	C202.668198,287.355804 205.030609,290.776855 209.856522,292.227478
	C213.727890,293.391174 218.232025,291.713226 218.825912,288.354004
	C220.265533,280.210754 218.217896,272.605743 214.609192,264.396729
	C212.922577,266.562988 211.831482,267.964355 210.344543,269.982483
M273.805573,285.759399
	C270.754211,277.369293 265.076874,271.017944 258.464233,264.884186
	C256.029327,270.987000 256.534027,283.258301 259.373871,287.838226
	C261.150330,290.703217 263.460876,292.819214 267.454376,292.224640
	C271.035248,291.691498 273.186310,290.039368 273.805573,285.759399
M256.877869,97.288353
	C255.251999,94.969185 254.086121,92.002563 251.910660,90.456940
	C246.259735,86.442047 244.529480,87.232536 241.509201,93.484756
	C238.454742,99.807762 240.298920,106.234978 240.056900,113.370445
	C247.963333,109.820503 253.240067,104.923286 256.877869,97.288353
M184.280701,94.010849
	C183.875000,95.705498 182.839951,97.539383 183.178452,99.069382
	C184.314026,104.202087 195.115540,112.366745 201.327530,112.625130
	C200.238159,107.559959 199.532532,102.568657 198.061203,97.814331
	C195.456131,89.396629 191.859283,88.350563 184.280701,94.010849
M146.418091,136.295212
	C151.376511,137.400070 156.314316,138.632706 161.320648,139.440567
	C161.915649,139.536591 163.807816,136.629715 163.540451,136.268646
	C160.258820,131.836884 156.779648,127.539101 153.152771,123.380043
	C151.121063,121.050201 148.899094,121.703880 146.593002,123.446854
	C141.511169,127.287804 141.160843,131.223358 146.418091,136.295212
M299.582275,137.126999
	C300.485840,136.759689 301.405212,136.426651 302.290253,136.019104
	C306.041931,134.291489 307.896057,130.650635 306.513550,127.772461
	C304.756958,124.115501 298.811432,121.917732 296.044464,124.744461
	C291.611298,129.273407 288.096680,134.701492 284.193817,139.749542
	C284.724152,140.456940 285.254486,141.164322 285.784790,141.871704
	C290.186737,140.452148 294.588684,139.032608 299.582275,137.126999
M156.574570,240.873306
	C153.010574,245.366852 152.757294,249.018723 155.744110,253.305115
	C157.353821,255.615204 159.265152,256.837769 161.880386,254.709396
	C167.197174,250.382355 170.367538,244.717270 173.240051,236.874542
	C166.975067,238.228256 162.060730,239.290131 156.574570,240.873306
M316.148163,253.492996
	C311.740570,246.062714 303.987030,244.639771 296.363464,242.409790
	C298.965820,248.314865 302.011078,253.684891 305.785583,258.481018
	C307.231598,260.318420 310.622955,262.117004 312.631531,261.675476
	C315.769592,260.985596 317.407990,257.874420 316.148163,253.492996
M321.398529,185.840149
	C313.690002,183.421890 308.007874,187.985886 301.764099,191.669861
	C306.477356,193.692917 311.188049,195.472931 316.044922,196.076447
	C318.721161,196.408997 321.643097,194.764771 324.454254,194.011719
	C323.692902,191.366699 322.931549,188.721680 321.398529,185.840149
z"/>
<path fill="#02BFB5" opacity="1.000000" stroke="none"
	d="
M164.963181,319.855621
	C179.927231,329.900024 195.356003,339.044342 212.529480,344.918701
	C215.371857,345.890961 218.006973,347.469086 220.547531,349.219116
	C203.044052,352.447388 185.926025,351.265198 168.860138,347.618469
	C139.876404,341.425018 115.005753,327.452667 92.563385,308.423737
	C80.030815,297.797333 69.053658,285.856903 61.323185,271.489105
	C53.892742,257.678986 48.955009,242.944138 47.659550,226.901367
	C46.025578,206.666473 49.929699,187.553574 56.697136,168.745758
	C57.388680,169.432022 57.757431,170.001648 57.892765,170.622162
	C63.603775,196.807220 72.556450,221.783142 85.790169,245.143860
	C102.967964,275.466827 125.995605,300.057556 156.735535,316.973206
	C159.246460,318.354919 162.209961,318.914215 164.963181,319.855621
z"/>
<path fill="#F8FAFA" opacity="1.000000" stroke="none"
	d="
M336.124512,150.482849
	C331.578979,144.946106 326.972290,139.036713 322.446564,133.065964
	C312.188568,119.532822 299.637268,108.527496 285.756531,98.827454
	C273.398590,90.191551 260.006287,83.609650 245.922791,78.636131
	C236.191879,75.199707 226.022461,72.744896 215.862198,70.856598
	C205.477875,68.926659 194.871811,67.255219 184.351730,67.187172
	C163.194946,67.050323 142.974838,71.392464 125.887421,84.934502
	C120.604530,89.121284 116.099503,94.287796 111.213097,98.979446
	C110.732162,99.441216 110.073761,99.718147 109.220490,99.993622
	C109.440842,98.356834 109.649994,96.629631 110.478798,95.284142
	C125.578056,70.772079 147.837112,56.685696 175.726120,51.183876
	C210.228165,44.377464 242.257553,51.310154 271.281128,70.629700
	C289.815491,82.967117 305.175659,99.007095 317.953094,117.285736
	C323.744141,125.570038 328.847229,134.346634 334.014679,143.047043
	C335.225555,145.085831 335.431732,147.721359 336.124512,150.482849
z"/>
<path fill="#FCFCFC" opacity="1.000000" stroke="none"
	d="
M164.905472,319.531006
	C162.209961,318.914215 159.246460,318.354919 156.735535,316.973206
	C125.995605,300.057556 102.967964,275.466827 85.790169,245.143860
	C72.556450,221.783142 63.603775,196.807220 57.892765,170.622162
	C57.757431,170.001648 57.388680,169.432022 56.946838,168.509399
	C58.824482,162.116730 60.233917,155.726395 63.083233,150.060120
	C68.495697,139.296692 74.732269,128.947678 80.626556,118.426552
	C81.094017,118.606956 81.561478,118.787361 82.028938,118.967773
	C81.366043,122.197472 80.723862,125.431587 80.037003,128.656174
	C74.420906,155.021713 77.290497,180.643173 85.770004,206.073349
	C96.352928,237.811768 111.435638,266.933258 134.265976,291.534241
	C142.583328,300.496674 152.375305,308.090973 161.500183,316.303162
	C162.597870,317.291077 163.731033,318.239594 164.905472,319.531006
z"/>
<path fill="#FBFCFA" opacity="1.000000" stroke="none"
	d="
M227.099579,170.398560
	C231.679230,163.151093 236.251740,156.291672 240.109497,149.051437
	C242.177765,145.169754 249.235718,142.002380 254.813629,143.613693
	C258.849274,144.779495 260.668365,149.225601 259.397949,154.222778
	C256.552948,165.413422 250.580185,175.001740 243.856598,184.121140
	C242.059128,186.559113 242.330719,187.958984 243.797150,190.140945
	C251.410828,201.469742 256.265839,213.946854 258.883911,227.317688
	C258.947876,227.644363 259.024475,227.969238 259.072723,228.298233
	C260.316986,236.781448 258.250916,241.281769 252.368973,242.907791
	C246.091080,244.643250 241.549103,241.473221 238.550140,233.302246
	C236.419174,227.496231 234.253784,221.702850 232.103760,215.903824
	C231.618210,216.008514 231.132675,216.113205 230.647125,216.217880
	C230.148254,221.544647 229.642166,226.870743 229.152115,232.198334
	C228.332657,241.107162 226.161957,243.106171 217.258148,243.122971
	C215.427155,243.126419 213.591339,243.211151 211.766113,243.109116
	C207.061523,242.846100 204.600357,240.622253 204.830078,235.887238
	C205.305038,226.097733 206.532104,216.339539 206.852859,206.548920
	C207.384018,190.334885 205.778885,174.357193 199.803558,159.066956
	C198.234528,155.051956 195.970428,150.900909 199.619247,146.939102
	C203.321747,142.918991 208.492081,142.062225 213.388397,142.959427
	C215.715027,143.385757 218.510895,146.243286 219.384872,148.626328
	C221.601929,154.671524 222.782898,161.090866 224.552322,167.311020
	C224.899277,168.530685 226.027252,169.528152 227.099579,170.398560
z"/>
<path fill="#658DFE" opacity="1.000000" stroke="none"
	d="
M154.940826,188.791763
	C149.501022,191.977753 144.335678,195.245438 138.758072,197.487564
	C134.226807,199.309067 131.076859,196.599854 130.830978,191.732971
	C130.307144,181.364319 134.490524,178.384964 144.316101,182.496948
	C148.061493,184.064377 151.473282,186.428940 154.940826,188.791763
z"/>
<path fill="#658DFE" opacity="1.000000" stroke="none"
	d="
M210.542450,269.674133
	C211.831482,267.964355 212.922577,266.562988 214.609192,264.396729
	C218.217896,272.605743 220.265533,280.210754 218.825912,288.354004
	C218.232025,291.713226 213.727890,293.391174 209.856522,292.227478
	C205.030609,290.776855 202.668198,287.355804 204.265045,282.896210
	C205.861526,278.437653 208.284088,274.274902 210.542450,269.674133
z"/>
<path fill="#658DFE" opacity="1.000000" stroke="none"
	d="
M273.863708,286.141846
	C273.186310,290.039368 271.035248,291.691498 267.454376,292.224640
	C263.460876,292.819214 261.150330,290.703217 259.373871,287.838226
	C256.534027,283.258301 256.029327,270.987000 258.464233,264.884186
	C265.076874,271.017944 270.754211,277.369293 273.863708,286.141846
z"/>
<path fill="#658CFE" opacity="1.000000" stroke="none"
	d="
M256.752808,97.635925
	C253.240067,104.923286 247.963333,109.820503 240.056900,113.370445
	C240.298920,106.234978 238.454742,99.807762 241.509201,93.484756
	C244.529480,87.232536 246.259735,86.442047 251.910660,90.456940
	C254.086121,92.002563 255.251999,94.969185 256.752808,97.635925
z"/>
<path fill="#658DFE" opacity="1.000000" stroke="none"
	d="
M184.549408,93.735161
	C191.859283,88.350563 195.456131,89.396629 198.061203,97.814331
	C199.532532,102.568657 200.238159,107.559959 201.327530,112.625130
	C195.115540,112.366745 184.314026,104.202087 183.178452,99.069382
	C182.839951,97.539383 183.875000,95.705498 184.549408,93.735161
z"/>
<path fill="#658DFE" opacity="1.000000" stroke="none"
	d="
M146.063065,136.148544
	C141.160843,131.223358 141.511169,127.287804 146.593002,123.446854
	C148.899094,121.703880 151.121063,121.050201 153.152771,123.380043
	C156.779648,127.539101 160.258820,131.836884 163.540451,136.268646
	C163.807816,136.629715 161.915649,139.536591 161.320648,139.440567
	C156.314316,138.632706 151.376511,137.400070 146.063065,136.148544
z"/>
<path fill="#648DFE" opacity="1.000000" stroke="none"
	d="
M299.286438,137.370026
	C294.588684,139.032608 290.186737,140.452148 285.784790,141.871704
	C285.254486,141.164322 284.724152,140.456940 284.193817,139.749542
	C288.096680,134.701492 291.611298,129.273407 296.044464,124.744461
	C298.811432,121.917732 304.756958,124.115501 306.513550,127.772461
	C307.896057,130.650635 306.041931,134.291489 302.290253,136.019104
	C301.405212,136.426651 300.485840,136.759689 299.286438,137.370026
z"/>
<path fill="#658DFE" opacity="1.000000" stroke="none"
	d="
M156.860489,240.612640
	C162.060730,239.290131 166.975067,238.228256 173.240051,236.874542
	C170.367538,244.717270 167.197174,250.382355 161.880386,254.709396
	C159.265152,256.837769 157.353821,255.615204 155.744110,253.305115
	C152.757294,249.018723 153.010574,245.366852 156.860489,240.612640
z"/>
<path fill="#638DFD" opacity="1.000000" stroke="none"
	d="
M316.219574,253.854828
	C317.407990,257.874420 315.769592,260.985596 312.631531,261.675476
	C310.622955,262.117004 307.231598,260.318420 305.785583,258.481018
	C302.011078,253.684891 298.965820,248.314865 296.363464,242.409790
	C303.987030,244.639771 311.740570,246.062714 316.219574,253.854828
z"/>
<path fill="#648DFE" opacity="1.000000" stroke="none"
	d="
M321.784363,185.958405
	C322.931549,188.721680 323.692902,191.366699 324.454254,194.011719
	C321.643097,194.764771 318.721161,196.408997 316.044922,196.076447
	C311.188049,195.472931 306.477356,193.692917 301.764099,191.669861
	C308.007874,187.985886 313.690002,183.421890 321.784363,185.958405
z"/>
</svg>
