<svg version="1.1" id="Layer_1" xmlns="http://www.w3.org/2000/svg" xmlns:xlink="http://www.w3.org/1999/xlink" x="0px" y="0px"
	 width="100%" viewBox="0 0 400 400" enable-background="new 0 0 400 400" xml:space="preserve">
<path fill="transparent" opacity="1.000000" stroke="none"
	d="
M225.000000,401.000000
	C150.023285,401.000000 75.546555,401.000000 1.034916,401.000000
	C1.034916,267.731598 1.034916,134.463211 1.034916,1.097406
	C134.226669,1.097406 267.453430,1.097406 400.840088,1.097406
	C400.840088,134.333176 400.840088,267.666565 400.840088,401.000000
	C342.463287,401.000000 283.981628,401.000000 225.000000,401.000000
M369.282501,192.341843
	C368.656830,189.630981 368.079163,186.907974 367.397827,184.211182
	C362.335480,164.173782 353.197327,146.066238 341.609100,129.050949
	C328.930725,110.435081 313.385376,94.524338 296.411591,79.870895
	C274.637939,61.073734 250.628586,46.398190 222.509811,39.139793
	C201.199448,33.638874 179.767166,32.488049 158.459671,38.621815
	C135.302841,45.287945 115.509300,57.923744 98.079750,74.409523
	C85.013359,86.768410 73.234665,100.200920 63.290329,115.238579
	C45.620346,141.958847 33.601128,170.791824 30.048080,202.846741
	C27.082022,229.605957 31.943550,254.920273 44.595203,278.642212
	C55.729492,299.519135 71.929489,315.943817 90.652489,330.110870
	C112.128288,346.360840 135.663956,358.550507 161.913162,364.617401
	C178.016052,368.339233 194.441971,369.368896 211.190216,368.318695
	C232.772446,366.965363 253.296860,362.154449 272.770874,353.282013
	C284.915466,347.748840 296.239471,340.439178 308.080597,334.209656
	C325.290039,325.155975 339.415863,312.655457 350.791840,296.966217
	C363.769073,279.068481 370.265442,258.955566 372.138214,237.002090
	C373.403809,222.166306 372.407867,207.643387 369.282501,192.341843
z"/>
<path fill="#403A2E" opacity="1.000000" stroke="none"
	d="
M369.219666,192.768066
	C372.407867,207.643387 373.403809,222.166306 372.138214,237.002090
	C370.265442,258.955566 363.769073,279.068481 350.791840,296.966217
	C339.415863,312.655457 325.290039,325.155975 308.080597,334.209656
	C296.239471,340.439178 284.915466,347.748840 272.770874,353.282013
	C253.296860,362.154449 232.772446,366.965363 211.190216,368.318695
	C194.441971,369.368896 178.016052,368.339233 161.913162,364.617401
	C135.663956,358.550507 112.128288,346.360840 90.652489,330.110870
	C71.929489,315.943817 55.729492,299.519135 44.595203,278.642212
	C31.943550,254.920273 27.082022,229.605957 30.048080,202.846741
	C33.601128,170.791824 45.620346,141.958847 63.290329,115.238579
	C73.234665,100.200920 85.013359,86.768410 98.079750,74.409523
	C115.509300,57.923744 135.302841,45.287945 158.459671,38.621815
	C179.767166,32.488049 201.199448,33.638874 222.509811,39.139793
	C250.628586,46.398190 274.637939,61.073734 296.411591,79.870895
	C313.385376,94.524338 328.930725,110.435081 341.609100,129.050949
	C353.197327,146.066238 362.335480,164.173782 367.397827,184.211182
	C368.079163,186.907974 368.656830,189.630981 369.219666,192.768066
M339.996735,158.015945
	C339.996735,158.015945 340.100586,157.998108 340.575562,157.301407
	C337.693634,151.009552 335.188782,144.510498 331.864807,138.461533
	C317.090912,111.575905 297.789886,88.386688 272.403961,71.061668
	C243.253036,51.167210 211.038544,43.846088 175.947006,50.809559
	C146.121613,56.728031 123.101318,72.072441 108.046501,98.750046
	C106.965958,100.664818 106.653854,103.013252 105.699821,105.794037
	C104.258698,108.883179 102.422363,111.852310 101.441849,115.081329
	C95.885826,133.378296 93.810585,151.960815 95.810066,171.138870
	C97.744659,189.694580 100.936485,207.894592 106.883385,225.581421
	C116.746506,254.915543 132.080887,280.685944 156.204498,300.629639
	C172.792297,314.343231 191.156189,325.077576 212.465912,328.962067
	C224.939453,331.235840 237.895752,331.988403 250.592072,331.677399
	C276.704620,331.037689 300.477448,323.035950 320.361816,305.426544
	C338.461823,289.397278 350.485077,269.795685 354.329254,245.664917
	C357.320801,226.886368 356.426361,208.152832 351.610046,189.823502
	C348.849915,179.319199 344.599060,169.206619 340.931549,158.266159
	C340.612457,158.148453 340.293365,158.030746 339.996735,158.015945
M167.113434,320.357483
	C165.743683,319.153107 164.463333,317.824554 162.990234,316.763702
	C149.280075,306.890137 137.268585,295.268219 126.614563,282.159637
	C105.015755,255.584793 91.323677,225.148804 82.174614,192.413910
	C77.321960,175.051331 76.510696,157.478149 78.906311,139.707352
	C79.882713,132.464294 81.187866,125.265549 82.446281,117.404282
	C81.377388,118.289261 80.576225,118.673798 80.195358,119.309967
	C74.926125,128.111176 69.216499,136.698563 64.650749,145.854919
	C61.164581,152.846268 59.144917,160.568909 55.834034,168.147446
	C53.384388,176.849411 50.596973,185.473328 48.563877,194.271545
	C45.475918,207.634659 45.103878,221.329102 47.371597,234.746704
	C50.232700,251.675201 56.445744,267.550323 66.335823,281.785492
	C76.384521,296.248901 89.029236,308.146271 103.154549,318.502716
	C119.162926,330.239807 136.325317,339.949585 155.595337,345.107758
	C166.567184,348.044739 177.806305,350.568054 189.079971,351.624146
	C199.826813,352.630920 210.774765,351.490875 221.657806,351.294159
	C221.657806,349.613251 221.827347,348.806030 221.633698,348.706665
	C203.573578,339.440308 185.485748,330.227997 167.113434,320.357483
z"/>
<path fill="#BCD739" opacity="1.000000" stroke="none"
	d="
M341.019318,158.917679
	C344.599060,169.206619 348.849915,179.319199 351.610046,189.823502
	C356.426361,208.152832 357.320801,226.886368 354.329254,245.664917
	C350.485077,269.795685 338.461823,289.397278 320.361816,305.426544
	C300.477448,323.035950 276.704620,331.037689 250.592072,331.677399
	C237.895752,331.988403 224.939453,331.235840 212.465912,328.962067
	C191.156189,325.077576 172.792297,314.343231 156.204498,300.629639
	C132.080887,280.685944 116.746506,254.915543 106.883385,225.581421
	C100.936485,207.894592 97.744659,189.694580 95.810066,171.138870
	C93.810585,151.960815 95.885826,133.378296 101.441849,115.081329
	C102.422363,111.852310 104.258698,108.883179 106.189514,105.395325
	C107.467644,104.222160 108.388260,103.542892 109.024773,102.659027
	C118.960922,88.861725 132.038666,78.857803 147.919724,73.363220
	C163.492599,67.975273 179.739548,66.105392 196.366302,68.063026
	C216.137741,70.390923 235.161652,75.070892 253.720230,82.435677
	C277.638092,91.927246 298.202393,106.028709 315.044037,125.250320
	C324.081970,135.565430 331.791595,147.044357 340.100586,157.998108
	C340.100586,157.998108 339.996735,158.015945 340.143402,158.148407
	C340.540833,158.484329 340.783936,158.696609 341.019318,158.917679
M207.942108,242.814835
	C208.742447,243.042999 209.549438,243.490829 210.342117,243.466766
	C224.763290,243.029053 228.938980,245.639099 230.003525,228.278961
	C230.236816,224.474579 230.788025,220.689697 231.192825,216.895828
	C234.162643,222.565811 235.848450,228.495987 238.411530,234.019043
	C239.937820,237.307983 242.348495,240.659698 245.259079,242.707626
	C248.545410,245.019974 252.554977,244.022141 255.978134,241.564392
	C260.558258,238.275970 260.458099,233.575424 259.636658,228.926849
	C257.178009,215.013168 252.264664,201.980377 244.400070,190.202072
	C242.678207,187.623352 242.905777,186.113205 244.681885,183.704620
	C251.222534,174.834869 257.003113,165.486008 259.772369,154.648926
	C261.253876,148.851303 259.163208,144.204712 254.882324,143.113037
	C248.288803,141.431610 241.654022,144.711639 239.684677,149.876938
	C236.675247,157.770187 232.215302,164.823792 226.159897,170.499344
	C224.052704,162.961334 222.235519,155.770874 220.008560,148.709671
	C218.186111,142.931107 214.796906,141.197800 208.878708,142.340668
	C197.116089,144.612152 195.032562,148.481888 199.511505,159.741989
	C199.634521,160.051239 199.794968,160.346207 199.908234,160.658600
	C205.600540,176.356323 207.319244,192.600784 206.309036,209.162430
	C205.793503,217.613937 204.567429,226.030487 204.293198,234.483307
	C204.208221,237.103088 206.197876,239.790146 207.942108,242.814835
M156.015442,186.367783
	C151.600449,184.546280 147.316086,182.243927 142.743698,181.001846
	C132.757782,178.289169 129.457001,181.109573 129.870346,191.252975
	C130.118622,197.345123 133.468918,200.393646 139.219955,198.227982
	C145.448502,195.882523 151.127762,192.069702 156.988586,188.793106
	C157.187973,188.681656 156.760818,187.449524 156.015442,186.367783
M267.978485,273.552673
	C264.720001,270.038696 261.461517,266.524719 257.502441,262.255249
	C255.388672,271.776520 255.607101,279.647003 258.046265,287.372803
	C259.654236,292.465820 264.957611,294.551392 270.159302,292.470459
	C275.081207,290.501434 276.075592,287.255676 273.182617,281.613983
	C271.835571,278.987091 270.045746,276.587311 267.978485,273.552673
M203.533936,282.235748
	C203.392960,283.873260 202.918198,285.564758 203.172913,287.138245
	C203.972656,292.078888 207.871735,293.018982 211.998047,293.429504
	C216.052704,293.832886 219.019470,292.061279 219.671844,288.075745
	C221.126724,279.187592 218.690369,270.986359 214.900513,263.146729
	C214.368652,263.007721 213.836807,262.868713 213.304962,262.729736
	C210.115005,268.968872 206.925049,275.208038 203.533936,282.235748
M245.312927,111.841797
	C249.169937,108.043961 253.596512,104.657516 256.721558,100.330986
	C259.763489,96.119514 256.846619,91.158081 250.682465,88.376846
	C245.572327,86.071167 242.933701,87.225304 240.675964,92.666824
	C237.683975,99.877983 239.245163,107.226532 239.366714,115.232239
	C241.643661,113.998466 243.199310,113.155548 245.312927,111.841797
M188.855972,107.632133
	C192.728653,110.216713 196.601349,112.801300 200.851822,115.638023
	C202.081970,108.181778 200.420547,99.130753 197.278107,93.921486
	C194.224808,88.859993 191.013992,87.893616 186.691422,90.735130
	C181.558075,94.109619 180.667542,97.635178 183.984650,102.393379
	C185.202194,104.139854 186.863617,105.576897 188.855972,107.632133
M155.883087,139.809845
	C159.088943,139.809845 162.294785,139.809845 165.500641,139.809845
	C165.887161,139.286270 166.273682,138.762695 166.660202,138.239120
	C162.736420,133.154053 159.128723,127.765404 154.705551,123.159912
	C153.289490,121.685455 149.420441,121.392532 147.193954,122.129898
	C143.284409,123.424675 141.110321,127.207932 141.721298,131.170395
	C142.065720,133.404144 144.452057,135.853195 146.566391,137.144714
	C149.004639,138.634094 152.156738,138.954803 155.883087,139.809845
M298.306549,138.994019
	C300.600647,137.700607 302.936859,136.475616 305.178589,135.097076
	C308.209656,133.233124 308.767700,130.361938 307.596985,127.296799
	C305.925812,122.921410 298.925171,121.097672 294.831207,124.227089
	C288.792480,128.843063 285.611938,135.377731 282.929749,143.599426
	C288.542938,141.910736 293.053894,140.553619 298.306549,138.994019
M153.089417,243.717911
	C153.623306,246.963074 153.562973,250.465729 154.831299,253.392654
	C156.703094,257.712250 159.462296,258.190216 163.146164,255.192123
	C168.657684,250.706604 171.531342,244.475281 174.486084,237.373840
	C166.285370,237.053268 158.894592,236.244141 153.089417,243.717911
M311.983398,247.492844
	C306.827881,244.735901 301.968567,241.174515 294.942078,241.008423
	C297.791595,249.016312 300.633270,256.174042 306.800842,261.385803
	C311.003937,264.937531 316.143524,262.900940 317.296600,257.460541
	C318.243927,252.990997 315.840820,250.261688 311.983398,247.492844
M302.647430,189.131241
	C301.665833,189.999496 300.684204,190.867737 298.728333,192.597748
	C305.910858,194.554947 311.704254,196.423248 317.630005,197.654465
	C322.173004,198.598389 325.749908,195.829651 325.914429,192.027695
	C326.105743,187.606369 322.781036,183.583328 318.278870,184.289642
	C313.192230,185.087677 308.328949,187.309326 302.647430,189.131241
z"/>
<path fill="#8B734D" opacity="1.000000" stroke="none"
	d="
M167.399719,321.012146
	C185.485748,330.227997 203.573578,339.440308 221.633698,348.706665
	C221.827347,348.806030 221.657806,349.613251 221.657806,351.294159
	C210.774765,351.490875 199.826813,352.630920 189.079971,351.624146
	C177.806305,350.568054 166.567184,348.044739 155.595337,345.107758
	C136.325317,339.949585 119.162926,330.239807 103.154549,318.502716
	C89.029236,308.146271 76.384521,296.248901 66.335823,281.785492
	C56.445744,267.550323 50.232700,251.675201 47.371597,234.746704
	C45.103878,221.329102 45.475918,207.634659 48.563877,194.271545
	C50.596973,185.473328 53.384388,176.849411 56.336647,168.422729
	C57.138584,169.820480 57.481895,170.933289 57.730797,172.066818
	C64.001785,200.625595 74.164749,227.645523 89.566048,252.592850
	C106.722069,280.382538 128.959106,302.896210 158.080673,318.148956
	C160.910568,319.631165 164.280472,320.082367 167.399719,321.012146
z"/>
<path fill="#FDFBF9" opacity="1.000000" stroke="none"
	d="
M340.338074,157.649750
	C331.791595,147.044357 324.081970,135.565430 315.044037,125.250320
	C298.202393,106.028709 277.638092,91.927246 253.720230,82.435677
	C235.161652,75.070892 216.137741,70.390923 196.366302,68.063026
	C179.739548,66.105392 163.492599,67.975273 147.919724,73.363220
	C132.038666,78.857803 118.960922,88.861725 109.024773,102.659027
	C108.388260,103.542892 107.467644,104.222160 106.331825,105.078339
	C106.653854,103.013252 106.965958,100.664818 108.046501,98.750046
	C123.101318,72.072441 146.121613,56.728031 175.947006,50.809559
	C211.038544,43.846088 243.253036,51.167210 272.403961,71.061668
	C297.789886,88.386688 317.090912,111.575905 331.864807,138.461533
	C335.188782,144.510498 337.693634,151.009552 340.338074,157.649750
z"/>
<path fill="#FCFAF8" opacity="1.000000" stroke="none"
	d="
M167.256577,320.684814
	C164.280472,320.082367 160.910568,319.631165 158.080673,318.148956
	C128.959106,302.896210 106.722069,280.382538 89.566048,252.592850
	C74.164749,227.645523 64.001785,200.625595 57.730797,172.066818
	C57.481895,170.933289 57.138584,169.820480 56.656075,168.332123
	C59.144917,160.568909 61.164581,152.846268 64.650749,145.854919
	C69.216499,136.698563 74.926125,128.111176 80.195358,119.309967
	C80.576225,118.673798 81.377388,118.289261 82.446281,117.404282
	C81.187866,125.265549 79.882713,132.464294 78.906311,139.707352
	C76.510696,157.478149 77.321960,175.051331 82.174614,192.413910
	C91.323677,225.148804 105.015755,255.584793 126.614563,282.159637
	C137.268585,295.268219 149.280075,306.890137 162.990234,316.763702
	C164.463333,317.824554 165.743683,319.153107 167.256577,320.684814
z"/>
<path fill="#FDFBF9" opacity="1.000000" stroke="none"
	d="
M340.975433,158.591919
	C340.783936,158.696609 340.540833,158.484329 340.132172,158.096954
	C340.293365,158.030746 340.612457,158.148453 340.975433,158.591919
z"/>
<path fill="#F3F3D6" opacity="1.000000" stroke="none"
	d="
M207.589905,242.630615
	C206.197876,239.790146 204.208221,237.103088 204.293198,234.483307
	C204.567429,226.030487 205.793503,217.613937 206.309036,209.162430
	C207.319244,192.600784 205.600540,176.356323 199.908234,160.658600
	C199.794968,160.346207 199.634521,160.051239 199.511505,159.741989
	C195.032562,148.481888 197.116089,144.612152 208.878708,142.340668
	C214.796906,141.197800 218.186111,142.931107 220.008560,148.709671
	C222.235519,155.770874 224.052704,162.961334 226.159897,170.499344
	C232.215302,164.823792 236.675247,157.770187 239.684677,149.876938
	C241.654022,144.711639 248.288803,141.431610 254.882324,143.113037
	C259.163208,144.204712 261.253876,148.851303 259.772369,154.648926
	C257.003113,165.486008 251.222534,174.834869 244.681885,183.704620
	C242.905777,186.113205 242.678207,187.623352 244.400070,190.202072
	C252.264664,201.980377 257.178009,215.013168 259.636658,228.926849
	C260.458099,233.575424 260.558258,238.275970 255.978134,241.564392
	C252.554977,244.022141 248.545410,245.019974 245.259079,242.707626
	C242.348495,240.659698 239.937820,237.307983 238.411530,234.019043
	C235.848450,228.495987 234.162643,222.565811 231.192825,216.895828
	C230.788025,220.689697 230.236816,224.474579 230.003525,228.278961
	C228.938980,245.639099 224.763290,243.029053 210.342117,243.466766
	C209.549438,243.490829 208.742447,243.042999 207.589905,242.630615
z"/>
<path fill="#413F2C" opacity="1.000000" stroke="none"
	d="
M156.320572,186.553772
	C156.760818,187.449524 157.187973,188.681656 156.988586,188.793106
	C151.127762,192.069702 145.448502,195.882523 139.219955,198.227982
	C133.468918,200.393646 130.118622,197.345123 129.870346,191.252975
	C129.457001,181.109573 132.757782,178.289169 142.743698,181.001846
	C147.316086,182.243927 151.600449,184.546280 156.320572,186.553772
z"/>
<path fill="#413F2C" opacity="1.000000" stroke="none"
	d="
M268.217529,273.818604
	C270.045746,276.587311 271.835571,278.987091 273.182617,281.613983
	C276.075592,287.255676 275.081207,290.501434 270.159302,292.470459
	C264.957611,294.551392 259.654236,292.465820 258.046265,287.372803
	C255.607101,279.647003 255.388672,271.776520 257.502441,262.255249
	C261.461517,266.524719 264.720001,270.038696 268.217529,273.818604
z"/>
<path fill="#3F3D2B" opacity="1.000000" stroke="none"
	d="
M203.634521,281.841492
	C206.925049,275.208038 210.115005,268.968872 213.304962,262.729736
	C213.836807,262.868713 214.368652,263.007721 214.900513,263.146729
	C218.690369,270.986359 221.126724,279.187592 219.671844,288.075745
	C219.019470,292.061279 216.052704,293.832886 211.998047,293.429504
	C207.871735,293.018982 203.972656,292.078888 203.172913,287.138245
	C202.918198,285.564758 203.392960,283.873260 203.634521,281.841492
z"/>
<path fill="#403E2C" opacity="1.000000" stroke="none"
	d="
M245.033936,112.077209
	C243.199310,113.155548 241.643661,113.998466 239.366714,115.232239
	C239.245163,107.226532 237.683975,99.877983 240.675964,92.666824
	C242.933701,87.225304 245.572327,86.071167 250.682465,88.376846
	C256.846619,91.158081 259.763489,96.119514 256.721558,100.330986
	C253.596512,104.657516 249.169937,108.043961 245.033936,112.077209
z"/>
<path fill="#403E2B" opacity="1.000000" stroke="none"
	d="
M188.589264,107.393608
	C186.863617,105.576897 185.202194,104.139854 183.984650,102.393379
	C180.667542,97.635178 181.558075,94.109619 186.691422,90.735130
	C191.013992,87.893616 194.224808,88.859993 197.278107,93.921486
	C200.420547,99.130753 202.081970,108.181778 200.851822,115.638023
	C196.601349,112.801300 192.728653,110.216713 188.589264,107.393608
z"/>
<path fill="#403E2C" opacity="1.000000" stroke="none"
	d="
M155.440979,139.796417
	C152.156738,138.954803 149.004639,138.634094 146.566391,137.144714
	C144.452057,135.853195 142.065720,133.404144 141.721298,131.170395
	C141.110321,127.207932 143.284409,123.424675 147.193954,122.129898
	C149.420441,121.392532 153.289490,121.685455 154.705551,123.159912
	C159.128723,127.765404 162.736420,133.154053 166.660202,138.239120
	C166.273682,138.762695 165.887161,139.286270 165.500641,139.809845
	C162.294785,139.809845 159.088943,139.809845 155.440979,139.796417
z"/>
<path fill="#3F3D2B" opacity="1.000000" stroke="none"
	d="
M297.935730,139.095276
	C293.053894,140.553619 288.542938,141.910736 282.929749,143.599426
	C285.611938,135.377731 288.792480,128.843063 294.831207,124.227089
	C298.925171,121.097672 305.925812,122.921410 307.596985,127.296799
	C308.767700,130.361938 308.209656,133.233124 305.178589,135.097076
	C302.936859,136.475616 300.600647,137.700607 297.935730,139.095276
z"/>
<path fill="#413E2C" opacity="1.000000" stroke="none"
	d="
M153.272598,243.384735
	C158.894592,236.244141 166.285370,237.053268 174.486084,237.373840
	C171.531342,244.475281 168.657684,250.706604 163.146164,255.192123
	C159.462296,258.190216 156.703094,257.712250 154.831299,253.392654
	C153.562973,250.465729 153.623306,246.963074 153.272598,243.384735
z"/>
<path fill="#403E2B" opacity="1.000000" stroke="none"
	d="
M312.280060,247.705612
	C315.840820,250.261688 318.243927,252.990997 317.296600,257.460541
	C316.143524,262.900940 311.003937,264.937531 306.800842,261.385803
	C300.633270,256.174042 297.791595,249.016312 294.942078,241.008423
	C301.968567,241.174515 306.827881,244.735901 312.280060,247.705612
z"/>
<path fill="#413F2B" opacity="1.000000" stroke="none"
	d="
M303.007996,189.021545
	C308.328949,187.309326 313.192230,185.087677 318.278870,184.289642
	C322.781036,183.583328 326.105743,187.606369 325.914429,192.027695
	C325.749908,195.829651 322.173004,198.598389 317.630005,197.654465
	C311.704254,196.423248 305.910858,194.554947 298.728333,192.597748
	C300.684204,190.867737 301.665833,189.999496 303.007996,189.021545
z"/>
</svg>
