<svg version="1.1" id="Layer_1" xmlns="http://www.w3.org/2000/svg" xmlns:xlink="http://www.w3.org/1999/xlink" x="0px" y="0px"
	 width="100%" viewBox="0 0 500 500" enable-background="new 0 0 500 500" xml:space="preserve">
<path fill="#FFFFFF" opacity="1.000000" stroke="none" 
	d="
M276.000000,501.000000 
	C184.000015,501.000000 92.500046,501.000000 1.000049,501.000000 
	C1.000033,334.333405 1.000033,167.666794 1.000016,1.000139 
	C167.666565,1.000092 334.333130,1.000092 500.999756,1.000046 
	C500.999847,167.666519 500.999847,334.333038 500.999939,500.999786 
	C426.166656,501.000000 351.333344,501.000000 276.000000,501.000000 
M275.523590,252.027420 
	C285.790436,241.799454 298.562408,235.678421 311.589600,229.946167 
	C328.836670,222.357071 344.429169,212.382935 356.816681,197.933929 
	C369.666840,182.945297 377.755341,165.551590 381.653748,146.328964 
	C384.118561,134.175262 384.283905,121.764549 382.816956,109.425171 
	C382.254486,104.693886 381.001404,100.044701 380.063019,95.358101 
	C373.314789,111.964691 361.174438,122.822838 346.341675,131.159851 
	C336.286743,136.811417 325.974182,142.037018 316.155121,148.068909 
	C296.990295,159.841919 278.989990,173.137894 265.305573,191.356689 
	C261.643280,196.232452 258.662201,201.619904 255.242661,206.969193 
	C247.623291,194.421677 239.116013,182.877563 228.091125,173.271149 
	C210.501907,157.944977 191.024750,145.561584 170.413147,134.763779 
	C154.326828,126.336632 139.760941,116.130722 132.565750,98.346024 
	C132.312775,97.720741 131.402054,97.361572 130.679001,96.783287 
	C126.986465,110.748619 125.759544,123.885475 127.947609,140.797073 
	C131.232666,166.187332 143.141739,187.168335 160.929382,205.162949 
	C172.869995,217.242493 187.294647,225.426147 202.729767,231.982147 
	C219.348633,239.040955 233.934311,248.756638 244.251190,263.851868 
	C248.476776,270.034576 251.815262,276.823608 255.784302,283.731873 
	C260.228790,271.933472 266.513428,261.526367 275.523590,252.027420 
M53.047012,280.535278 
	C39.437435,292.896179 37.385910,308.302277 41.834732,325.079285 
	C46.559769,342.897949 59.470848,353.745453 75.009026,361.872589 
	C95.094276,372.378052 116.729500,376.907257 139.255524,376.949005 
	C207.740585,377.075958 276.226349,377.110291 344.711060,376.912292 
	C358.806458,376.871490 372.981964,376.405884 386.971527,374.820770 
	C405.804871,372.686829 423.809052,367.273102 439.304169,355.730133 
	C457.766327,341.976929 466.480652,323.720123 461.688873,300.774841 
	C458.223785,284.182404 445.468414,274.830017 431.434143,267.229675 
	C430.746490,266.857269 428.862183,267.693726 428.164886,268.507141 
	C424.459717,272.829254 420.955750,277.323792 417.288483,281.874817 
	C418.143250,282.257660 418.871368,282.641296 419.638000,282.918457 
	C431.034912,287.039764 442.055054,292.193237 449.978577,301.512421 
	C457.557434,310.426239 458.605713,315.377136 451.321106,324.228149 
	C448.420105,327.752960 444.907562,330.940765 441.183289,333.593994 
	C420.838440,348.088043 397.153656,352.518097 373.154785,352.736328 
	C295.844421,353.439331 218.523560,352.930450 141.207047,353.065460 
	C126.061737,353.091919 111.170868,351.579041 96.491119,347.975708 
	C79.968826,343.920044 64.654831,337.482269 52.213379,325.357849 
	C45.171776,318.495636 44.297649,311.185669 51.109993,304.439575 
	C56.327221,299.273163 62.329048,294.704498 68.576317,290.827850 
	C74.753525,286.994659 81.676346,284.363037 88.897881,280.904663 
	C84.204384,275.650055 79.854912,270.780548 74.821289,265.145111 
	C67.537567,270.247375 60.546490,275.144623 53.047012,280.535278 
M250.500198,403.450134 
	C216.718399,403.455719 182.932388,403.769379 149.156921,403.309723 
	C136.305679,403.134857 123.320274,402.082184 110.673477,399.854431 
	C84.394135,395.225372 61.014755,384.249207 41.963799,365.010315 
	C40.853588,363.889130 39.100773,363.404297 36.723770,362.127380 
	C44.145435,380.758698 55.006386,395.109589 70.347908,405.975983 
	C91.854774,421.209259 116.468300,427.490997 142.145874,427.714172 
	C213.934525,428.338165 285.733521,428.048340 357.526489,427.707428 
	C375.700531,427.621155 393.608826,424.651886 410.700562,417.911407 
	C434.517151,408.518829 452.407166,392.786896 462.904694,369.170807 
	C463.703918,367.372803 463.817352,365.269958 464.371429,362.755798 
	C463.062958,363.194092 462.537659,363.240265 462.189819,363.512878 
	C461.409210,364.124756 460.660583,364.798492 459.996552,365.535034 
	C436.980713,391.063232 406.442993,400.895294 373.905426,402.536407 
	C333.191925,404.589905 292.309631,403.298035 250.500198,403.450134 
M102.756187,221.723190 
	C98.911194,209.138153 98.694611,196.379013 100.803734,183.479355 
	C102.624382,172.344025 103.985741,161.251923 102.120499,149.882523 
	C98.633797,128.629730 85.732971,114.052437 68.761375,100.840981 
	C69.261879,105.244888 69.722008,108.617157 70.017044,112.003807 
	C71.477219,128.764893 66.469734,144.863586 64.760445,161.301102 
	C62.375824,184.233139 66.158737,206.236328 73.443550,227.679428 
	C80.165779,247.466522 91.199387,264.831360 105.439919,280.284424 
	C117.244705,293.094269 130.256180,304.262543 145.336716,312.920837 
	C159.396179,320.992859 174.452637,326.383484 190.579636,328.603699 
	C193.981750,329.072052 197.364075,329.684204 200.755508,330.230103 
	C200.956406,329.612061 201.157303,328.994019 201.358185,328.376007 
	C199.684067,327.632172 197.945450,327.005493 196.346512,326.125061 
	C187.521515,321.265717 178.422668,316.817627 169.998703,311.335754 
	C156.697205,302.679749 145.453049,291.532776 135.170258,279.515350 
	C120.735474,262.645599 108.810684,244.273483 102.756187,221.723190 
M174.392685,297.082092 
	C197.409058,315.259583 223.035553,326.732086 253.185120,328.490051 
	C251.358459,314.298340 249.048157,301.200409 242.699280,289.219391 
	C228.369812,262.178162 205.582825,244.860550 177.997528,232.992264 
	C161.311188,225.813110 142.656479,223.766174 126.780090,213.290710 
	C128.044220,221.601807 129.205292,229.804092 131.874802,237.481888 
	C140.115677,261.183533 154.973770,280.398376 174.392685,297.082092 
M429.901428,243.332565 
	C434.274628,230.179825 439.122192,217.161316 442.892609,203.837982 
	C446.963470,189.453049 447.002991,174.479233 445.617432,159.767853 
	C443.800903,140.481262 437.621613,121.558716 442.041046,100.712318 
	C438.784882,103.284088 436.540802,104.962654 434.398834,106.762756 
	C412.296356,125.337456 403.875977,148.672974 408.540863,177.324493 
	C410.289459,188.064377 410.761780,199.335083 409.661407,210.144440 
	C407.732574,229.091644 399.269562,245.952835 388.785553,261.597931 
	C368.988770,291.140411 342.956573,313.426117 310.125580,327.517853 
	C309.390747,327.833252 308.856567,328.616119 307.812500,329.555511 
	C353.955505,327.057800 403.848755,294.899597 429.901428,243.332565 
M269.041168,288.595673 
	C262.305664,300.816345 259.266388,314.014313 258.152039,328.438995 
	C295.180145,324.066254 326.191528,308.692596 351.115662,282.002319 
	C368.918671,262.937744 380.527954,240.481339 382.740173,213.579666 
	C376.565094,216.668381 371.139923,219.813431 365.392365,222.173309 
	C350.162842,228.426376 334.483551,233.666550 319.554016,240.548065 
	C297.682831,250.629196 281.329742,267.074005 269.041168,288.595673 
M254.125290,81.193466 
	C250.007278,72.717529 242.645386,70.848412 234.163177,71.623817 
	C224.663300,72.492249 218.018402,77.630821 215.191101,86.597610 
	C211.503372,98.293335 215.115585,108.682938 223.616119,116.942719 
	C234.050491,127.081612 245.124527,136.562210 255.286057,145.752197 
	C264.908020,137.129166 274.976379,128.279999 284.835907,119.203949 
	C290.626038,113.873955 294.855957,107.567619 296.545868,99.590919 
	C298.806976,88.918076 292.973145,76.826813 282.773285,72.641068 
	C273.225647,68.722969 260.809845,71.704651 256.310242,81.476669 
	C256.161743,81.799133 255.111710,81.706444 254.125290,81.193466 
M281.309479,161.796951 
	C291.940002,154.255630 303.570496,147.774719 312.961517,138.918976 
	C326.314484,126.327148 327.322937,109.447807 324.277679,91.954590 
	C319.130249,109.338081 304.647583,117.832565 291.656433,127.972282 
	C283.647980,134.222946 276.140564,141.397934 269.586517,149.153671 
	C262.386414,157.673935 259.970795,168.502533 258.478729,180.279419 
	C266.330078,173.825165 273.483185,167.944870 281.309479,161.796951 
M216.988953,126.516594 
	C203.876328,117.115311 190.500916,107.945419 186.010666,90.841286 
	C185.388474,102.192223 184.912186,113.198090 188.817307,123.954659 
	C193.694138,137.387817 203.683350,145.896118 215.258316,153.189789 
	C228.489655,161.527161 242.009369,169.545624 252.078552,182.238586 
	C251.491638,176.778625 250.930878,171.347961 249.468048,166.172226 
	C244.492798,148.568741 231.777313,137.122177 216.988953,126.516594 
z"/>
<path fill="#0D3143" opacity="1.000000" stroke="none" 
	d="
M275.273499,252.276733 
	C266.513428,261.526367 260.228790,271.933472 255.784302,283.731873 
	C251.815262,276.823608 248.476776,270.034576 244.251190,263.851868 
	C233.934311,248.756638 219.348633,239.040955 202.729767,231.982147 
	C187.294647,225.426147 172.869995,217.242493 160.929382,205.162949 
	C143.141739,187.168335 131.232666,166.187332 127.947609,140.797073 
	C125.759544,123.885475 126.986465,110.748619 130.679001,96.783287 
	C131.402054,97.361572 132.312775,97.720741 132.565750,98.346024 
	C139.760941,116.130722 154.326828,126.336632 170.413147,134.763779 
	C191.024750,145.561584 210.501907,157.944977 228.091125,173.271149 
	C239.116013,182.877563 247.623291,194.421677 255.242661,206.969193 
	C258.662201,201.619904 261.643280,196.232452 265.305573,191.356689 
	C278.989990,173.137894 296.990295,159.841919 316.155121,148.068909 
	C325.974182,142.037018 336.286743,136.811417 346.341675,131.159851 
	C361.174438,122.822838 373.314789,111.964691 380.063019,95.358101 
	C381.001404,100.044701 382.254486,104.693886 382.816956,109.425171 
	C384.283905,121.764549 384.118561,134.175262 381.653748,146.328964 
	C377.755341,165.551590 369.666840,182.945297 356.816681,197.933929 
	C344.429169,212.382935 328.836670,222.357071 311.589600,229.946167 
	C298.562408,235.678421 285.790436,241.799454 275.273499,252.276733 
z"/>
<path fill="#0E3243" opacity="1.000000" stroke="none" 
	d="
M53.301216,280.288574 
	C60.546490,275.144623 67.537567,270.247375 74.821289,265.145111 
	C79.854912,270.780548 84.204384,275.650055 88.897881,280.904663 
	C81.676346,284.363037 74.753525,286.994659 68.576317,290.827850 
	C62.329048,294.704498 56.327221,299.273163 51.109993,304.439575 
	C44.297649,311.185669 45.171776,318.495636 52.213379,325.357849 
	C64.654831,337.482269 79.968826,343.920044 96.491119,347.975708 
	C111.170868,351.579041 126.061737,353.091919 141.207047,353.065460 
	C218.523560,352.930450 295.844421,353.439331 373.154785,352.736328 
	C397.153656,352.518097 420.838440,348.088043 441.183289,333.593994 
	C444.907562,330.940765 448.420105,327.752960 451.321106,324.228149 
	C458.605713,315.377136 457.557434,310.426239 449.978577,301.512421 
	C442.055054,292.193237 431.034912,287.039764 419.638000,282.918457 
	C418.871368,282.641296 418.143250,282.257660 417.288483,281.874817 
	C420.955750,277.323792 424.459717,272.829254 428.164886,268.507141 
	C428.862183,267.693726 430.746490,266.857269 431.434143,267.229675 
	C445.468414,274.830017 458.223785,284.182404 461.688873,300.774841 
	C466.480652,323.720123 457.766327,341.976929 439.304169,355.730133 
	C423.809052,367.273102 405.804871,372.686829 386.971527,374.820770 
	C372.981964,376.405884 358.806458,376.871490 344.711060,376.912292 
	C276.226349,377.110291 207.740585,377.075958 139.255524,376.949005 
	C116.729500,376.907257 95.094276,372.378052 75.009026,361.872589 
	C59.470848,353.745453 46.559769,342.897949 41.834732,325.079285 
	C37.385910,308.302277 39.437435,292.896179 53.301216,280.288574 
z"/>
<path fill="#103345" opacity="1.000000" stroke="none" 
	d="
M251.000214,403.450195 
	C292.309631,403.298035 333.191925,404.589905 373.905426,402.536407 
	C406.442993,400.895294 436.980713,391.063232 459.996552,365.535034 
	C460.660583,364.798492 461.409210,364.124756 462.189819,363.512878 
	C462.537659,363.240265 463.062958,363.194092 464.371429,362.755798 
	C463.817352,365.269958 463.703918,367.372803 462.904694,369.170807 
	C452.407166,392.786896 434.517151,408.518829 410.700562,417.911407 
	C393.608826,424.651886 375.700531,427.621155 357.526489,427.707428 
	C285.733521,428.048340 213.934525,428.338165 142.145874,427.714172 
	C116.468300,427.490997 91.854774,421.209259 70.347908,405.975983 
	C55.006386,395.109589 44.145435,380.758698 36.723770,362.127380 
	C39.100773,363.404297 40.853588,363.889130 41.963799,365.010315 
	C61.014755,384.249207 84.394135,395.225372 110.673477,399.854431 
	C123.320274,402.082184 136.305679,403.134857 149.156921,403.309723 
	C182.932388,403.769379 216.718399,403.455719 251.000214,403.450195 
z"/>
<path fill="#306B82" opacity="1.000000" stroke="none" 
	d="
M102.833237,222.128204 
	C108.810684,244.273483 120.735474,262.645599 135.170258,279.515350 
	C145.453049,291.532776 156.697205,302.679749 169.998703,311.335754 
	C178.422668,316.817627 187.521515,321.265717 196.346512,326.125061 
	C197.945450,327.005493 199.684067,327.632172 201.358185,328.376007 
	C201.157303,328.994019 200.956406,329.612061 200.755508,330.230103 
	C197.364075,329.684204 193.981750,329.072052 190.579636,328.603699 
	C174.452637,326.383484 159.396179,320.992859 145.336716,312.920837 
	C130.256180,304.262543 117.244705,293.094269 105.439919,280.284424 
	C91.199387,264.831360 80.165779,247.466522 73.443550,227.679428 
	C66.158737,206.236328 62.375824,184.233139 64.760445,161.301102 
	C66.469734,144.863586 71.477219,128.764893 70.017044,112.003807 
	C69.722008,108.617157 69.261879,105.244888 68.761375,100.840981 
	C85.732971,114.052437 98.633797,128.629730 102.120499,149.882523 
	C103.985741,161.251923 102.624382,172.344025 100.803734,183.479355 
	C98.694611,196.379013 98.911194,209.138153 102.833237,222.128204 
z"/>
<path fill="#123142" opacity="1.000000" stroke="none" 
	d="
M174.077332,296.912964 
	C154.973770,280.398376 140.115677,261.183533 131.874802,237.481888 
	C129.205292,229.804092 128.044220,221.601807 126.780090,213.290710 
	C142.656479,223.766174 161.311188,225.813110 177.997528,232.992264 
	C205.582825,244.860550 228.369812,262.178162 242.699280,289.219391 
	C249.048157,301.200409 251.358459,314.298340 253.185120,328.490051 
	C223.035553,326.732086 197.409058,315.259583 174.077332,296.912964 
z"/>
<path fill="#2C6C85" opacity="1.000000" stroke="none" 
	d="
M429.718079,243.663727 
	C403.848755,294.899597 353.955505,327.057800 307.812500,329.555511 
	C308.856567,328.616119 309.390747,327.833252 310.125580,327.517853 
	C342.956573,313.426117 368.988770,291.140411 388.785553,261.597931 
	C399.269562,245.952835 407.732574,229.091644 409.661407,210.144440 
	C410.761780,199.335083 410.289459,188.064377 408.540863,177.324493 
	C403.875977,148.672974 412.296356,125.337456 434.398834,106.762756 
	C436.540802,104.962654 438.784882,103.284088 442.041046,100.712318 
	C437.621613,121.558716 443.800903,140.481262 445.617432,159.767853 
	C447.002991,174.479233 446.963470,189.453049 442.892609,203.837982 
	C439.122192,217.161316 434.274628,230.179825 429.718079,243.663727 
z"/>
<path fill="#2C6781" opacity="1.000000" stroke="none" 
	d="
M269.227844,288.274536 
	C281.329742,267.074005 297.682831,250.629196 319.554016,240.548065 
	C334.483551,233.666550 350.162842,228.426376 365.392365,222.173309 
	C371.139923,219.813431 376.565094,216.668381 382.740173,213.579666 
	C380.527954,240.481339 368.918671,262.937744 351.115662,282.002319 
	C326.191528,308.692596 295.180145,324.066254 258.152039,328.438995 
	C259.266388,314.014313 262.305664,300.816345 269.227844,288.274536 
z"/>
<path fill="#113448" opacity="1.000000" stroke="none" 
	d="
M254.303604,81.500366 
	C255.111710,81.706444 256.161743,81.799133 256.310242,81.476669 
	C260.809845,71.704651 273.225647,68.722969 282.773285,72.641068 
	C292.973145,76.826813 298.806976,88.918076 296.545868,99.590919 
	C294.855957,107.567619 290.626038,113.873955 284.835907,119.203949 
	C274.976379,128.279999 264.908020,137.129166 255.286057,145.752197 
	C245.124527,136.562210 234.050491,127.081612 223.616119,116.942719 
	C215.115585,108.682938 211.503372,98.293335 215.191101,86.597610 
	C218.018402,77.630821 224.663300,72.492249 234.163177,71.623817 
	C242.645386,70.848412 250.007278,72.717529 254.303604,81.500366 
z"/>
<path fill="#133649" opacity="1.000000" stroke="none" 
	d="
M280.972900,161.930756 
	C273.483185,167.944870 266.330078,173.825165 258.478729,180.279419 
	C259.970795,168.502533 262.386414,157.673935 269.586517,149.153671 
	C276.140564,141.397934 283.647980,134.222946 291.656433,127.972282 
	C304.647583,117.832565 319.130249,109.338081 324.277679,91.954590 
	C327.322937,109.447807 326.314484,126.327148 312.961517,138.918976 
	C303.570496,147.774719 291.940002,154.255630 280.972900,161.930756 
z"/>
<path fill="#143649" opacity="1.000000" stroke="none" 
	d="
M217.260681,126.753708 
	C231.777313,137.122177 244.492798,148.568741 249.468048,166.172226 
	C250.930878,171.347961 251.491638,176.778625 252.078552,182.238586 
	C242.009369,169.545624 228.489655,161.527161 215.258316,153.189789 
	C203.683350,145.896118 193.694138,137.387817 188.817307,123.954659 
	C184.912186,113.198090 185.388474,102.192223 186.010666,90.841286 
	C190.500916,107.945419 203.876328,117.115311 217.260681,126.753708 
z"/>
</svg>