<svg version="1.1" id="Layer_1" xmlns="http://www.w3.org/2000/svg" xmlns:xlink="http://www.w3.org/1999/xlink" x="0px" y="0px"
	 width="100%" viewBox="0 0 500 200" enable-background="new 0 0 500 200" xml:space="preserve">
<path fill="#FFFFFF" opacity="1.000000" stroke="none" 
	d="
M275.019684,160.384369 
	C272.779907,161.073898 270.691589,161.818466 268.600433,161.826538 
	C245.825607,161.914551 223.050003,161.941528 200.275726,161.802124 
	C198.149231,161.789093 196.030380,160.525192 193.543579,159.698334 
	C187.899612,155.755203 186.925278,150.540543 186.984863,144.274338 
	C187.261810,115.148407 187.096664,86.018326 187.103394,56.889729 
	C187.105164,49.238056 194.082214,42.121189 201.640472,42.120300 
	C224.776581,42.117577 247.912689,42.155773 271.550293,42.616940 
	C273.081726,43.668472 274.111664,44.281116 275.141571,44.893761 
	C275.141571,44.893757 275.028015,44.975395 275.033691,45.290642 
	C275.985016,46.419525 276.930664,47.233158 277.876343,48.046791 
	C278.586914,48.699074 279.297455,49.351360 280.028931,50.670509 
	C280.617035,52.567783 281.184235,53.798199 281.751465,55.028610 
	C281.823395,55.767635 281.895355,56.506664 281.565247,57.620926 
	C280.561340,58.372704 279.959473,58.749252 279.357635,59.125801 
	C280.157196,59.759808 280.956726,60.393818 281.756287,61.027832 
	C281.805450,65.370758 281.854614,69.713676 281.453888,74.628487 
	C280.677338,76.584068 280.069641,77.966988 280.065887,79.351555 
	C280.003387,102.494377 280.000214,125.637451 280.052521,148.780304 
	C280.055695,150.182358 280.633606,151.583084 280.944092,152.984421 
	C279.019348,155.355423 277.094574,157.726410 275.019684,160.384369 
M222.950867,137.125854 
	C227.956970,137.173706 232.963074,137.221558 238.171356,137.985001 
	C240.791809,137.750290 243.412262,137.515564 246.916977,137.114487 
	C247.649292,135.660263 249.009628,134.210190 249.019257,132.751205 
	C249.153214,112.448494 249.102219,92.144562 249.096497,71.840927 
	C249.095947,69.904144 249.096436,67.967369 249.096436,66.263817 
	C238.717377,66.263817 228.966675,66.263817 219.050125,66.263817 
	C219.050125,90.005135 219.050125,113.446869 219.025986,137.573654 
	C219.344711,138.245422 219.663437,138.917175 219.982162,139.588943 
	C220.665436,138.817551 221.348709,138.046143 222.950867,137.125854 
M248.978470,64.031891 
	C250.071976,64.834724 251.165482,65.637558 252.259003,66.440392 
	C252.608521,66.209381 252.958054,65.978363 253.307571,65.747353 
	C252.391632,64.435989 251.741165,62.390263 250.511826,61.945873 
	C246.183777,60.381317 241.656281,58.957966 237.115814,62.332592 
	C240.797302,62.890163 244.478775,63.447735 248.978470,64.031891 
z"/>
<path fill="#FFFFFF" opacity="1.000000" stroke="none" 
	d="
M383.884766,161.470093 
	C352.589966,161.915970 321.363464,161.901993 289.682983,161.896759 
	C289.167480,126.103745 289.105347,90.302002 289.045319,54.500259 
	C289.038910,50.676105 289.044464,46.851940 289.044464,42.593494 
	C299.600769,42.593494 309.958099,42.593494 320.648529,42.593494 
	C320.648529,74.166573 320.648529,105.749573 320.648529,137.706894 
	C330.834412,137.706894 340.702026,137.706894 351.023529,137.706894 
	C351.023529,106.020432 351.023529,74.313858 351.023529,42.392693 
	C362.065125,42.392693 372.660156,42.392693 383.953033,42.392693 
	C383.953033,81.917397 383.953033,121.463821 383.884766,161.470093 
z"/>
<path fill="#FFFFFF" opacity="1.000000" stroke="none" 
	d="
M173.023499,160.449310 
	C170.962357,161.132706 169.022537,161.829132 167.080429,161.835617 
	C143.592072,161.913971 120.103363,161.897934 96.614799,161.866364 
	C95.678459,161.865112 94.742653,161.464554 93.443420,161.034409 
	C90.229439,153.441483 87.378647,146.064178 84.296616,138.088516 
	C105.332237,138.088516 125.425865,138.088516 145.779037,138.088516 
	C145.779037,130.019287 145.779037,122.280914 145.779037,113.631218 
	C128.373978,113.631218 110.968460,113.631218 93.212357,112.947464 
	C92.036476,111.908546 91.211174,111.553375 90.385864,111.198212 
	C89.413574,110.421577 88.441277,109.644943 87.982391,108.498383 
	C89.653252,107.308517 91.903564,106.262039 91.788284,105.705902 
	C91.111328,102.440041 90.409927,98.927238 86.001228,96.753151 
	C86.096581,101.275879 90.543655,104.349152 87.602814,108.193283 
	C86.400764,105.741386 84.222488,103.314240 84.159584,100.833450 
	C83.822449,87.538391 84.012535,74.229973 84.541222,60.464676 
	C87.552864,60.003178 90.043747,60.003178 91.280312,60.003178 
	C91.280312,55.875259 91.280312,52.800415 91.280312,50.060265 
	C89.750359,50.917408 87.901863,51.953011 85.999649,52.590057 
	C85.874947,51.932915 85.803947,51.674332 85.732956,51.415749 
	C85.961647,50.682945 86.190346,49.950142 87.071526,49.082153 
	C88.811508,47.620117 89.899010,46.293266 90.986519,44.966415 
	C92.628944,44.022594 94.266342,42.266277 95.914551,42.256081 
	C123.374588,42.086201 150.835983,42.134968 178.885529,42.134968 
	C178.528244,43.875195 178.401703,45.304401 177.933258,46.611015 
	C176.813629,49.733879 175.592621,52.824108 174.306274,55.882816 
	C170.081039,65.929596 170.062851,65.923149 158.926483,65.924179 
	C145.127548,65.925453 131.328598,65.924484 117.231949,65.924484 
	C117.231949,73.925865 117.231949,81.667496 117.231949,90.109482 
	C119.023895,90.109482 120.947166,90.110123 122.870430,90.109383 
	C136.859711,90.104012 150.849091,90.062279 164.838211,90.106514 
	C173.034790,90.132431 179.924683,97.072151 179.936768,105.245178 
	C179.955994,118.235176 179.542191,131.240997 180.074127,144.208847 
	C180.353165,151.011169 178.655182,156.216690 173.023499,160.449310 
M152.870667,117.455582 
	C148.341400,116.842659 150.438110,119.678902 150.401016,122.791237 
	C152.648102,121.311584 154.122345,120.340813 155.596603,119.370049 
	C154.915848,118.830147 154.235077,118.290245 152.870667,117.455582 
M93.689148,99.138084 
	C93.342598,97.843666 92.996056,96.549248 92.649513,95.254829 
	C91.932739,95.591385 91.215965,95.927948 90.499191,96.264503 
	C91.389542,97.392876 92.279892,98.521240 93.689148,99.138084 
M151.634735,111.293045 
	C150.663971,110.906868 149.693207,110.520699 148.722427,110.134529 
	C148.600739,110.720604 148.479034,111.306686 148.357330,111.892769 
	C149.367447,111.892769 150.377548,111.892769 151.634735,111.293045 
M101.045776,110.748512 
	C100.920586,110.009171 100.795395,109.269829 100.670212,108.530495 
	C100.253357,108.607162 99.836502,108.683830 99.419647,108.760490 
	C99.745949,109.456474 100.072258,110.152466 101.045776,110.748512 
M87.902611,92.266243 
	C87.957794,92.767067 88.012970,93.267891 88.068153,93.768715 
	C88.516426,93.653481 88.964691,93.538246 89.412964,93.423012 
	C89.109505,92.995377 88.806038,92.567741 87.902611,92.266243 
z"/>
<path fill="#FFFFFF" opacity="1.000000" stroke="none" 
	d="
M421.833130,161.447235 
	C411.881836,161.900696 402.004272,161.896530 391.671967,161.902039 
	C391.146790,134.775681 391.066284,107.639648 391.010345,80.503571 
	C390.984314,67.876556 391.005920,55.249447 391.005920,42.095062 
	C393.060028,42.095062 394.830475,42.095264 396.600922,42.095028 
	C420.744293,42.091824 444.892365,42.354733 469.028168,41.925411 
	C476.404541,41.794201 480.937561,44.772305 484.245911,51.328407 
	C484.634827,52.679836 485.116425,53.370674 485.598053,54.061508 
	C485.693909,67.719284 485.789734,81.377052 485.473389,95.485916 
	C482.187988,96.683807 483.017822,97.773705 484.781982,98.950165 
	C483.673401,100.454994 482.564789,101.959824 480.921112,103.789078 
	C479.986511,104.862938 479.587036,105.612358 479.187531,106.361778 
	C477.033112,109.415421 473.969086,109.974556 470.445740,109.952919 
	C454.477509,109.854874 438.508331,109.910011 421.906860,109.910011 
	C421.906860,127.124359 421.906860,144.056976 421.833130,161.447235 
M450.322845,65.968056 
	C440.935181,65.968056 431.547485,65.968056 422.240051,65.968056 
	C422.240051,74.310898 422.240051,82.028175 422.240051,89.781334 
	C432.566925,89.781334 442.616638,89.781334 453.024353,89.781334 
	C453.024353,82.473328 453.077820,75.374924 452.948242,68.279861 
	C452.934021,67.501602 451.868378,66.742554 450.322845,65.968056 
M416.103851,89.089714 
	C416.741943,89.349579 417.380005,89.609436 418.191681,89.939995 
	C417.515076,86.106964 416.921844,82.746307 416.163177,78.448387 
	C413.031189,82.445717 413.507355,85.442116 416.103851,89.089714 
z"/>
<path fill="#4BC30C" opacity="1.000000" stroke="none" 
	d="
M75.939011,161.498093 
	C57.813374,161.975006 39.734043,162.076721 21.658419,161.863800 
	C19.843184,161.842407 17.171650,160.351120 16.399126,158.796051 
	C13.031017,152.016068 10.217931,144.960342 7.158149,137.637604 
	C18.894341,137.270432 30.675674,137.270432 42.888992,137.270432 
	C42.888992,105.295967 42.888992,73.927879 42.888992,42.281357 
	C54.039696,42.281357 64.758141,42.281357 75.986374,42.281357 
	C75.986374,81.920563 75.986374,121.477295 75.939011,161.498093 
z"/>
<path fill="#FFFFFF" opacity="1.000000" stroke="none" 
	d="
M281.275604,152.716827 
	C280.633606,151.583084 280.055695,150.182358 280.052521,148.780304 
	C280.000214,125.637451 280.003387,102.494377 280.065887,79.351555 
	C280.069641,77.966988 280.677338,76.584068 281.381409,75.086227 
	C281.708252,100.797798 281.657684,126.623528 281.275604,152.716827 
z"/>
<path fill="#FFFFFF" opacity="1.000000" stroke="none" 
	d="
M86.053360,52.988617 
	C87.901863,51.953011 89.750359,50.917408 91.280312,50.060265 
	C91.280312,52.800415 91.280312,55.875259 91.280312,60.003178 
	C90.043747,60.003178 87.552864,60.003178 84.630676,60.003895 
	C84.149422,59.556576 84.099472,59.108540 84.464966,58.249599 
	C85.253685,56.560616 85.626945,55.282528 86.005943,53.750092 
	C86.025566,53.326702 86.039467,53.157661 86.053360,52.988617 
z"/>
<path fill="#FFFFFF" opacity="1.000000" stroke="none" 
	d="
M90.648621,45.009636 
	C89.899010,46.293266 88.811508,47.620117 87.361969,48.973381 
	C88.103531,47.684151 89.207130,46.368504 90.648621,45.009636 
z"/>
<path fill="#FFFFFF" opacity="1.000000" stroke="none" 
	d="
M86.000214,54.004444 
	C85.626945,55.282528 85.253685,56.560616 84.538208,57.917389 
	C84.144485,56.929459 84.092964,55.862835 84.446548,54.417591 
	C85.234497,54.027462 85.617355,54.015953 86.000214,54.004444 
z"/>
<path fill="#FFFFFF" opacity="1.000000" stroke="none" 
	d="
M485.078430,98.777756 
	C483.017822,97.773705 482.187988,96.683807 485.370941,95.941071 
	C485.578766,96.831879 485.476807,97.718605 485.078430,98.777756 
z"/>
<path fill="#FFFFFF" opacity="1.000000" stroke="none" 
	d="
M281.825806,54.672386 
	C281.184235,53.798199 280.617035,52.567783 280.122498,50.947830 
	C280.763489,51.810917 281.331818,53.063541 281.825806,54.672386 
z"/>
<path fill="#FFFFFF" opacity="1.000000" stroke="none" 
	d="
M281.852600,60.653721 
	C280.956726,60.393818 280.157196,59.759808 279.357635,59.125801 
	C279.959473,58.749252 280.561340,58.372704 281.489990,57.986824 
	C281.860840,58.744862 281.904877,59.512234 281.852600,60.653721 
z"/>
<path fill="#FFFFFF" opacity="1.000000" stroke="none" 
	d="
M275.057495,44.588898 
	C274.111664,44.281116 273.081726,43.668472 272.002197,42.736168 
	C272.959503,43.039017 273.966492,43.661526 275.057495,44.588898 
z"/>
<path fill="#FFFFFF" opacity="1.000000" stroke="none" 
	d="
M277.794434,47.745632 
	C276.930664,47.233158 275.985016,46.419525 275.074219,45.233658 
	C275.976868,45.722439 276.844696,46.583454 277.794434,47.745632 
z"/>
<path fill="#FFFFFF" opacity="1.000000" stroke="none" 
	d="
M248.569366,64.018600 
	C244.478775,63.447735 240.797302,62.890163 237.115814,62.332592 
	C241.656281,58.957966 246.183777,60.381317 250.511826,61.945873 
	C251.741165,62.390263 252.391632,64.435989 253.307571,65.747353 
	C252.958054,65.978363 252.608521,66.209381 252.259003,66.440392 
	C251.165482,65.637558 250.071976,64.834724 248.569366,64.018600 
z"/>
<path fill="#FFFFFF" opacity="1.000000" stroke="none" 
	d="
M238.070267,137.627213 
	C240.362930,137.214050 242.756699,137.158676 245.591583,137.192078 
	C243.412262,137.515564 240.791809,137.750290 238.070267,137.627213 
z"/>
<path fill="#FFFFFF" opacity="1.000000" stroke="none" 
	d="
M219.038055,137.231125 
	C219.801682,136.949463 220.553253,137.010315 221.668396,137.172958 
	C221.348709,138.046143 220.665436,138.817551 219.982162,139.588943 
	C219.663437,138.917175 219.344711,138.245422 219.038055,137.231125 
z"/>
<path fill="#FFFFFF" opacity="1.000000" stroke="none" 
	d="
M87.648743,108.169121 
	C90.543655,104.349152 86.096581,101.275879 86.001228,96.753151 
	C90.409927,98.927238 91.111328,102.440041 91.788284,105.705902 
	C91.903564,106.262039 89.653252,107.308517 88.066193,108.178467 
	C87.636589,108.228470 87.694672,108.144958 87.648743,108.169121 
z"/>
<path fill="#FFFFFF" opacity="1.000000" stroke="none" 
	d="
M153.212494,117.602966 
	C154.235077,118.290245 154.915848,118.830147 155.596603,119.370049 
	C154.122345,120.340813 152.648102,121.311584 150.401016,122.791237 
	C150.438110,119.678902 148.341400,116.842659 153.212494,117.602966 
z"/>
<path fill="#FFFFFF" opacity="1.000000" stroke="none" 
	d="
M93.429695,99.393845 
	C92.279892,98.521240 91.389542,97.392876 90.499191,96.264503 
	C91.215965,95.927948 91.932739,95.591385 92.649513,95.254829 
	C92.996056,96.549248 93.342598,97.843666 93.429695,99.393845 
z"/>
<path fill="#FFFFFF" opacity="1.000000" stroke="none" 
	d="
M151.511200,111.592911 
	C150.377548,111.892769 149.367447,111.892769 148.357330,111.892769 
	C148.479034,111.306686 148.600739,110.720604 148.722427,110.134529 
	C149.693207,110.520699 150.663971,110.906868 151.511200,111.592911 
z"/>
<path fill="#FFFFFF" opacity="1.000000" stroke="none" 
	d="
M100.722168,110.798477 
	C100.072258,110.152466 99.745949,109.456474 99.419647,108.760498 
	C99.836502,108.683830 100.253357,108.607162 100.670212,108.530487 
	C100.795395,109.269829 100.920586,110.009171 100.722168,110.798477 
z"/>
<path fill="#FFFFFF" opacity="1.000000" stroke="none" 
	d="
M88.202591,92.203171 
	C88.806038,92.567741 89.109505,92.995377 89.412964,93.423012 
	C88.964691,93.538246 88.516426,93.653481 88.068153,93.768715 
	C88.012970,93.267891 87.957794,92.767067 88.202591,92.203171 
z"/>
<path fill="#FFFFFF" opacity="1.000000" stroke="none" 
	d="
M415.915771,88.775558 
	C413.507355,85.442116 413.031189,82.445717 416.163177,78.448387 
	C416.921844,82.746307 417.515076,86.106964 418.191681,89.939995 
	C417.380005,89.609436 416.741943,89.349579 415.915771,88.775558 
z"/>
</svg>