<svg version="1.1" id="Layer_1" xmlns="http://www.w3.org/2000/svg" xmlns:xlink="http://www.w3.org/1999/xlink" x="0px" y="0px"
	 width="100%" viewBox="0 0 352 400" enable-background="new 0 0 352 400" xml:space="preserve">
<path fill="#3a89ff" opacity="1.000000" stroke="none"
	d="
M353.000000,154.531342
	C341.003296,163.119659 327.853699,169.299530 315.682770,177.091400
	C310.443787,180.445435 306.417328,180.797592 300.940765,177.308914
	C290.015656,170.349365 278.549164,164.234329 267.247314,157.875305
	C264.304901,156.219742 263.245453,154.197296 263.330811,150.653122
	C263.662811,136.864502 263.668091,123.063622 263.512085,109.270500
	C263.469086,105.468567 264.670319,103.097794 267.990509,101.242226
	C280.472900,94.266144 292.892609,87.174286 305.233368,79.950783
	C308.364563,78.117966 310.616211,79.643707 313.043610,81.035431
	C326.170349,88.561531 339.279419,96.118423 352.697296,103.832344
	C353.000000,120.687561 353.000000,137.375122 353.000000,154.531342
M290.839081,158.628372
	C294.751129,160.296951 297.952545,163.489761 302.221954,164.225479
	C303.257324,163.351181 303.562531,162.409363 303.565765,161.390198
	C303.594513,152.403381 303.566071,143.416260 303.633331,134.429810
	C303.653290,131.763214 301.814026,130.695969 299.926849,129.597595
	C293.599518,125.915047 287.301147,122.180229 280.910553,118.610664
	C278.975586,117.529869 277.219757,115.724594 274.063965,116.215965
	C274.063965,124.022072 274.488373,131.841675 273.936432,139.591736
	C273.450806,146.410660 275.189331,151.085999 282.002411,153.536560
	C284.925537,154.587967 287.485443,156.649155 290.839081,158.628372
M334.373505,153.828201
	C340.862000,151.548737 343.807343,147.322266 342.771057,140.178909
	C342.180481,136.107712 342.764648,131.877518 342.634552,127.724739
	C342.513245,123.852753 343.254852,119.884186 341.675690,115.458687
	C332.699188,120.657547 324.095490,125.645790 315.485474,130.623138
	C313.485535,131.779297 313.081635,133.627625 313.090179,135.737717
	C313.113678,141.557037 313.014038,147.377716 313.105377,153.195618
	C313.166260,157.072891 312.572449,161.027557 313.883942,165.644424
	C320.867004,161.616837 327.303253,157.904633 334.373505,153.828201
M298.704468,118.715546
	C299.566223,119.221405 300.518921,119.618507 301.274902,120.250824
	C306.067535,124.259506 310.668243,123.874870 315.719452,120.413284
	C320.515167,117.126801 325.769867,114.516083 330.759857,111.504021
	C332.679474,110.345291 335.210815,109.910927 336.193115,107.367760
	C335.917877,106.937675 335.753876,106.357918 335.380920,106.146034
	C326.696564,101.212746 317.990875,96.317055 309.284912,91.421837
	C308.358398,90.900879 307.385376,90.808327 306.430664,91.347298
	C297.503876,96.386749 288.580933,101.432976 278.669861,107.035126
	C285.801331,111.205368 291.928497,114.788315 298.704468,118.715546
z"/>
<path fill="#3a89ff" opacity="1.000000" stroke="none"
	d="
M353.000000,302.531342
	C339.429138,310.788910 325.829346,318.528168 312.311890,326.408722
	C309.613586,327.981812 307.407440,328.364563 304.504089,326.661072
	C292.443115,319.584686 280.291412,312.657532 268.056091,305.886963
	C264.380432,303.852966 263.140106,301.420532 263.281738,297.103394
	C263.718475,283.791595 263.663757,270.457825 263.508118,257.136047
	C263.463684,253.331467 264.636597,250.972610 267.985107,249.112442
	C280.358704,242.238693 292.615784,235.155029 304.907623,228.134445
	C306.529907,227.207886 308.151642,226.214188 310.035553,227.288193
	C324.193726,235.359695 338.336273,243.458664 352.741852,251.774506
	C353.000000,268.687561 353.000000,285.375122 353.000000,302.531342
M313.076874,304.361969
	C313.361389,306.929749 312.436310,309.656403 314.411133,312.819733
	C320.356842,309.492310 325.968872,305.490051 332.196350,303.074463
	C340.897278,299.699432 343.823914,294.154175 342.816681,285.104523
	C342.039703,278.124054 342.661743,270.987823 342.661743,262.791748
	C332.684906,268.546417 323.919647,273.606262 315.149628,278.657867
	C313.055237,279.864258 313.069427,281.880371 313.071136,283.909546
	C313.076691,290.405945 313.074463,296.902344 313.076874,304.361969
M290.126740,306.289856
	C294.236298,308.220154 297.901306,311.135345 302.837494,312.571991
	C304.269226,306.944214 302.873444,301.717285 303.743225,296.765717
	C305.885345,284.570679 301.727539,276.452850 289.786346,272.337219
	C286.711792,271.277557 284.078583,268.980316 281.167114,267.389832
	C279.069092,266.243744 277.107483,264.669128 274.050598,264.373352
	C274.050598,269.829071 274.806641,275.089417 273.905182,280.048462
	C271.455017,293.527496 276.958374,301.717285 290.126740,306.289856
M301.358856,268.056854
	C305.913452,271.990509 310.430328,272.140411 315.181793,268.246521
	C316.958954,266.790131 319.196045,265.902222 321.195648,264.708618
	C326.269562,261.679840 331.667480,259.156738 337.138397,254.938431
	C330.222229,250.965622 323.681702,247.737976 317.732971,243.649277
	C311.201965,239.160416 305.494690,238.738998 298.822845,243.523575
	C292.874695,247.789185 286.157623,250.982574 278.959717,255.120636
	C286.931061,259.732635 293.824890,263.721222 301.358856,268.056854
z"/>
<path fill="#3a89ff" opacity="1.000000" stroke="none"
	d="
M175.437500,401.000000
	C163.201324,394.173157 151.488770,387.190216 139.556839,380.604767
	C135.424271,378.323944 133.558777,375.703064 133.678223,370.808014
	C133.999100,357.657257 133.903992,344.491547 133.703964,331.335876
	C133.645508,327.491119 135.040543,325.160095 138.309921,323.325562
	C150.652756,316.399475 162.915497,309.330292 175.186096,302.276184
	C177.342941,301.036224 179.276306,300.554199 181.682541,301.962585
	C194.324783,309.362274 207.012131,316.687164 219.770065,323.885162
	C222.672653,325.522766 223.427292,327.693268 223.397339,330.824432
	C223.268295,344.315094 223.153976,357.811310 223.431595,371.297333
	C223.523422,375.757904 221.955444,378.237762 218.119110,380.339874
	C206.151077,386.897614 194.372589,393.801300 182.260315,400.785400
	C179.958328,401.000000 177.916672,401.000000 175.437500,401.000000
M212.820724,345.642456
	C212.609192,343.081726 213.325546,340.402100 212.047974,337.657837
	C206.984818,339.357666 203.245209,343.105927 198.634064,344.667206
	C185.144196,349.234619 181.075363,358.559418 183.223862,371.896973
	C184.023788,376.862823 182.719284,382.054443 183.991287,387.958435
	C193.417801,382.438110 202.291824,377.286652 211.109421,372.040344
	C212.927658,370.958527 212.812042,368.931061 212.814819,367.087738
	C212.825119,360.259918 212.821915,353.432129 212.820724,345.642456
M173.269684,385.802704
	C174.665375,378.716827 173.094864,371.495697 174.030975,364.452789
	C175.162994,355.935883 171.977264,350.866333 164.176880,347.452850
	C157.727234,344.630402 151.810120,340.591095 145.577789,337.045898
	C144.952225,338.153198 144.515015,338.567657 144.511856,338.985413
	C144.439026,348.642029 144.415039,358.298950 144.377106,367.955841
	C144.371460,369.393677 144.860886,370.589142 146.140274,371.315491
	C154.944092,376.313843 163.289291,382.134369 173.269684,385.802704
M206.841675,328.659790
	C198.480164,322.338715 188.919159,318.030151 179.981293,312.675934
	C179.093781,312.144287 178.000992,312.199860 177.099213,312.716034
	C168.072693,317.882477 159.064362,323.080658 149.226730,328.744415
	C159.047684,334.429779 168.050720,339.639404 177.050522,344.854614
	C178.135086,345.483124 179.197296,345.605316 180.344208,344.973450
	C189.333984,340.020721 198.537308,335.428406 206.841675,328.659790
z"/>
<path fill="#3a89ff" opacity="1.000000" stroke="none"
	d="
M238.277588,230.837769
	C238.923584,235.806351 237.207733,238.478012 233.019592,240.770386
	C216.231735,249.959152 199.681808,259.584045 183.087677,269.123810
	C180.306671,270.722565 177.943451,271.343719 174.815491,269.526184
	C157.973572,259.740021 141.050659,250.089584 124.035927,240.607193
	C120.206955,238.473297 118.700905,235.882599 118.749634,231.468918
	C118.957428,212.649994 118.911751,193.826828 118.769745,175.006638
	C118.739891,171.049911 120.047058,168.585571 123.575951,166.617905
	C140.590103,157.131042 157.504608,147.464020 174.388565,137.746445
	C177.295670,136.073257 179.768112,135.938934 182.717880,137.642365
	C199.873123,147.549026 217.076965,157.372360 234.323654,167.119003
	C237.309662,168.806503 238.361984,171.003845 238.338379,174.397583
	C238.208618,193.051346 238.275116,211.706482 238.277588,230.837769
M183.309052,220.510727
	C183.309052,230.709488 183.309052,240.908234 183.309052,252.364502
	C196.989838,244.530716 209.363235,237.459503 221.717270,230.354630
	C223.338745,229.422104 223.685715,227.812897 223.682663,226.048477
	C223.659439,212.575897 223.668823,199.103256 223.625168,185.630768
	C223.623306,185.059784 223.199280,184.490158 222.749802,183.362686
	C213.370117,188.693359 204.631577,194.603882 195.133972,198.793823
	C185.492081,203.047424 181.267288,209.185364 183.309052,220.510727
M145.161499,189.393539
	C141.457733,187.687515 138.292648,184.876511 134.325134,183.719421
	C132.866760,185.619888 133.397232,187.518234 133.388123,189.270828
	C133.328461,200.743408 133.554932,212.221573 133.255234,223.686615
	C133.147491,227.807999 134.691650,230.083450 138.100891,231.975677
	C148.563370,237.782669 158.902893,243.810867 169.315033,249.709259
	C170.528030,250.396408 171.700150,251.664642 173.831787,250.418716
	C173.831787,236.559128 173.812698,222.454834 173.849991,208.350677
	C173.856445,205.909119 172.229340,204.909531 170.455521,203.895950
	C162.229218,199.195511 154.014496,194.474808 145.161499,189.393539
M165.176498,190.263306
	C168.221680,191.981064 171.388382,193.518555 174.278488,195.466431
	C177.272110,197.484055 179.736664,197.422791 182.916489,195.534180
	C193.077591,189.499115 203.475464,183.863846 213.730316,177.984238
	C215.192673,177.145813 217.138809,176.661713 217.775497,174.255829
	C205.467804,167.253342 193.167145,160.280197 180.900040,153.248489
	C179.034286,152.179031 177.531509,152.590515 175.806091,153.595276
	C169.619629,157.197815 163.281204,160.544449 157.155685,164.245117
	C151.375168,167.737335 145.123322,170.492569 139.008972,175.248230
	C147.926895,180.356277 156.239685,185.117722 165.176498,190.263306
z"/>
<path fill="#3a89ff" opacity="1.000000" stroke="none"
	d="
M37.699554,232.651764
	C45.607994,225.859146 52.643116,227.120758 60.677296,232.541809
	C70.021782,238.847031 80.272430,243.816879 90.180016,249.275162
	C92.964142,250.808960 94.194145,252.892975 94.171059,256.106628
	C94.069435,270.256531 94.084076,284.407593 94.132683,298.557983
	C94.142014,301.274841 93.445633,303.325073 90.911247,304.764008
	C77.889221,312.157379 64.900475,319.610199 51.953300,327.133789
	C49.537083,328.537842 47.549198,327.890106 45.430859,326.672699
	C33.167751,319.625275 20.940905,312.512238 8.590568,305.620758
	C5.244737,303.753723 3.970620,301.339813 4.011430,297.592285
	C4.156448,284.275604 4.225821,270.954437 4.022474,257.639587
	C3.954101,253.162613 5.851294,250.662842 9.599090,248.614365
	C18.942783,243.507324 28.125008,238.104874 37.699554,232.651764
M83.649109,285.455505
	C83.649109,278.357422 83.649109,271.259338 83.649109,264.023407
	C82.474167,264.085022 81.912659,263.950104 81.544579,264.157867
	C73.137955,268.903015 64.760033,273.698975 56.357567,278.451508
	C54.279751,279.626709 54.066383,281.519928 54.072582,283.598206
	C54.094444,290.927032 54.023373,298.256683 54.113010,305.584473
	C54.141922,307.947662 53.557373,310.459991 54.977489,313.068054
	C61.684704,309.300934 67.848251,305.248535 74.492386,302.267181
	C81.688911,299.037994 85.256493,294.415436 83.649109,285.455505
M23.462463,257.238495
	C30.650183,261.419891 37.901096,265.497894 44.995010,269.832794
	C47.895451,271.605164 50.400944,271.755798 53.319237,269.990692
	C58.725246,266.720856 64.260513,263.665009 69.735977,260.509674
	C72.395851,258.976868 75.406708,257.918518 77.844116,254.664368
	C68.552467,249.466324 59.618412,244.443604 50.649399,239.484085
	C49.602203,238.905029 48.318703,239.001862 47.262627,239.587662
	C38.975624,244.184250 30.699001,248.799988 22.449881,253.464111
	C19.984936,254.857803 21.068291,255.971375 23.462463,257.238495
M43.019829,312.502075
	C43.355301,312.181580 43.977444,311.867279 43.984501,311.539734
	C44.184464,302.262238 44.351658,292.983765 44.453594,283.704651
	C44.486202,280.736237 42.817162,278.867737 40.280994,277.457825
	C33.897766,273.909180 27.619688,270.171387 21.235130,266.625214
	C19.462357,265.640564 17.901014,263.817657 14.702346,264.653778
	C14.702346,274.478119 14.689806,284.403473 14.711026,294.328705
	C14.716436,296.859070 16.503229,298.109161 18.443203,299.185211
	C26.422741,303.611237 34.407696,308.027496 43.019829,312.502075
z"/>
<path fill="#3a89ff" opacity="1.000000" stroke="none"
	d="
M67.329254,170.374481
	C62.239395,173.270340 57.397560,175.873810 52.746372,178.782181
	C49.926983,180.545135 47.702000,180.105286 44.952698,178.501236
	C32.884846,171.460373 20.726055,164.571564 8.502229,157.804657
	C5.540272,156.164963 4.063145,154.127182 4.078918,150.730240
	C4.144588,136.586761 4.123199,122.442787 4.095811,108.299065
	C4.090122,105.360962 5.239964,103.351517 7.880170,101.860107
	C20.625031,94.660744 33.307060,87.349754 45.983688,80.030396
	C48.071472,78.824936 49.883343,78.834259 52.021049,80.063889
	C64.709000,87.362160 77.439598,94.587296 90.207947,101.744072
	C92.985214,103.300751 94.214302,105.362572 94.189087,108.576340
	C94.079414,122.553490 94.050346,136.532364 94.158699,150.509308
	C94.183891,153.760040 92.936981,155.748474 90.162781,157.295486
	C82.609261,161.507614 75.152634,165.893524 67.329254,170.374481
M72.504723,155.959335
	C74.939758,154.531479 77.396324,153.138748 79.802467,151.663773
	C81.482262,150.634064 83.534439,149.746872 83.548248,147.382263
	C83.608887,136.996643 83.574402,126.610466 83.574402,116.093040
	C82.419968,116.162659 81.855728,116.032715 81.484344,116.243134
	C73.113281,120.986122 64.776016,125.788757 56.401272,130.525162
	C54.110394,131.820786 54.045677,133.888123 54.055958,136.111176
	C54.091293,143.750443 54.018215,151.390686 54.117477,159.028854
	C54.143906,161.062820 53.354729,163.335068 55.534016,165.522690
	C60.946377,162.471298 66.404816,159.393921 72.504723,155.959335
M43.258949,93.761314
	C35.670757,98.095856 28.082565,102.430389 20.404165,106.816460
	C21.083225,107.817581 21.265917,108.375977 21.646423,108.603394
	C25.643581,110.992439 30.085939,112.832375 33.614223,115.773132
	C43.861500,124.314072 53.665791,124.921974 64.095482,116.055351
	C68.051697,112.692039 73.432137,111.190781 77.407234,107.795929
	C76.610672,105.557045 74.857056,105.141716 73.465042,104.341660
	C67.113350,100.690979 60.592678,97.312508 54.408531,93.400246
	C50.671814,91.036308 47.413013,90.738716 43.258949,93.761314
M30.536745,124.029869
	C25.551239,121.196800 20.565735,118.363724 14.908192,115.148758
	C14.908192,125.448311 15.022194,134.716278 14.851212,143.978973
	C14.784271,147.605408 16.185398,149.835251 19.311316,151.544983
	C26.016918,155.212616 32.568287,159.161240 39.235443,162.900986
	C40.581882,163.656219 41.882664,165.009583 44.573505,163.893127
	C44.573505,158.076233 44.091831,151.921814 44.683849,145.872467
	C45.625126,136.254242 43.340355,128.906067 33.339127,125.612694
	C32.566963,125.358421 31.895880,124.797211 30.536745,124.029869
z"/>
<path fill="#3a89ff" opacity="1.000000" stroke="none"
	d="
M223.339661,58.999939
	C223.337479,65.164864 223.208405,70.833687 223.381516,76.493279
	C223.479553,79.698479 222.361176,81.755920 219.526169,83.349365
	C207.040985,90.366753 194.613861,97.489311 182.239014,104.699562
	C179.815063,106.111877 177.876846,106.278610 175.332825,104.854073
	C163.418243,98.182457 151.432419,91.634117 139.377563,85.219292
	C135.460175,83.134697 133.555466,80.605850 133.674423,75.826378
	C134.010056,62.339111 133.849045,48.836903 133.712524,35.342316
	C133.678955,32.024647 134.504242,29.721043 137.591095,27.998970
	C150.390762,20.858345 163.107635,13.567653 175.789169,6.218576
	C177.950714,4.965938 179.703796,5.019952 181.806290,6.219259
	C194.535461,13.480166 207.300247,20.678881 220.077347,27.855291
	C222.543427,29.240400 223.421356,31.203085 223.377777,34.008194
	C223.250931,42.170349 223.336777,50.335808 223.339661,58.999939
M210.437836,42.411190
	C202.634735,46.856930 194.873260,51.378357 187.005341,55.706253
	C184.348389,57.167778 183.229523,59.039104 183.278244,62.085567
	C183.413925,70.569756 183.292786,79.057800 183.329803,87.544075
	C183.335190,88.778748 182.857361,90.273376 184.875259,91.264328
	C193.182632,86.594643 201.713501,81.795403 210.249084,77.004585
	C212.011353,76.015465 212.822647,74.555222 212.815918,72.514084
	C212.785202,63.195854 212.818787,53.877419 212.792374,44.559162
	C212.789185,43.438663 212.901520,42.065395 210.437836,42.411190
M144.338135,70.998535
	C143.897064,74.135338 145.612228,75.872139 148.152466,77.284081
	C154.397476,80.755249 160.540405,84.410492 166.794693,87.864357
	C168.869186,89.009964 170.598892,91.094673 173.905960,90.862282
	C173.905960,82.731140 173.496536,74.752907 174.035263,66.839218
	C174.467743,60.486313 172.463867,56.466381 166.514038,54.035675
	C163.318329,52.730125 160.568726,50.372738 157.451462,48.825085
	C153.381897,46.804638 149.820023,43.705338 144.324539,42.321392
	C144.324539,51.960243 144.324539,61.033173 144.338135,70.998535
M168.003830,22.545393
	C162.028320,26.020620 156.052795,29.495846 149.361267,33.387486
	C150.447189,34.013477 150.886307,34.260300 151.319397,34.517258
	C156.321335,37.484898 161.294998,40.501389 166.329041,43.413490
	C178.722137,50.582630 178.713745,50.530853 190.976715,43.188580
	C196.308136,39.996464 201.738297,36.969257 207.958618,33.386166
	C200.814560,29.252596 194.274796,26.219248 188.615433,22.003887
	C181.565430,16.752716 175.248062,16.460817 168.003830,22.545393
z"/>
<path fill="#3a89ff" opacity="1.000000" stroke="none"
	d="
M44.713104,183.682495
	C47.280975,181.904068 50.041225,184.118378 53.316273,181.540527
	C54.878197,196.468552 53.751221,210.357971 54.080643,224.700699
	C50.636612,224.254089 48.070606,223.339478 44.395897,225.403992
	C44.629070,210.960724 43.454056,197.515701 44.713104,183.682495
z"/>
<path fill="#3a89ff" opacity="1.000000" stroke="none"
	d="
M313.096680,192.061981
	C313.097382,203.131699 313.097382,213.712723 313.097382,224.651184
	C309.711945,224.399582 307.167694,223.339981 304.120178,224.835648
	C304.120178,210.588776 304.120178,196.932297 304.120178,182.927826
	C306.701569,182.756546 309.259277,182.586838 312.062805,182.400818
	C313.898468,185.302277 312.774841,188.538406 313.096680,192.061981
z"/>
<path fill="#3a89ff" opacity="1.000000" stroke="none"
	d="
M253.220093,92.737045
	C256.833954,95.109718 260.759674,96.309998 263.819489,99.418091
	C262.515656,101.646957 260.798157,103.646202 260.049591,107.299263
	C247.417374,100.091446 235.291016,93.172256 222.892059,86.097542
	C224.650406,83.410660 226.051102,81.270302 227.811905,78.579666
	C236.180481,83.240417 244.541397,87.896896 253.220093,92.737045
z"/>
<path fill="#3a89ff" opacity="1.000000" stroke="none"
	d="
M121.827118,82.799866
	C124.715912,81.220970 127.289215,79.822365 130.101273,78.294014
	C131.334473,81.061920 131.968979,83.487206 134.964371,85.731537
	C122.216949,93.051933 110.134796,99.990288 97.650467,107.159599
	C96.653427,103.997910 95.664017,101.617279 92.539513,99.281265
	C102.638260,93.599228 112.074951,88.289696 121.827118,82.799866
z"/>
<path fill="#3a89ff" opacity="1.000000" stroke="none"
	d="
M244.741547,318.830078
	C238.662033,321.835907 233.561752,325.935730 227.226974,328.305847
	C226.095078,325.757141 225.014160,323.555450 222.499680,321.116028
	C235.075577,313.927795 247.191055,307.002747 259.333344,300.062378
	C261.430786,302.537750 261.304962,305.408081 264.453003,307.322998
	C257.528473,311.366425 251.294144,315.006866 244.741547,318.830078
z"/>
<path fill="#3a89ff" opacity="1.000000" stroke="none"
	d="
M106.636574,315.395142
	C102.322357,312.600281 97.685028,310.999329 93.884323,307.587219
	C95.240669,305.246887 96.930168,303.239716 97.402603,299.754425
	C109.961548,306.945068 121.961914,313.815918 134.234283,320.842468
	C132.687866,323.494293 131.417709,325.672394 129.900558,328.274078
	C121.863380,324.701660 114.604256,319.771240 106.636574,315.395142
z"/>
<path fill="#3a89ff" opacity="1.000000" stroke="none"
	d="
M257.765656,243.201813
	C260.023804,244.579453 262.343689,245.224152 264.024750,247.322220
	C262.203186,249.382050 261.028992,251.677292 260.040833,254.755783
	C252.063202,251.249664 245.165588,246.574371 237.853455,242.296051
	C239.417694,239.656525 240.719482,237.459869 242.399460,234.625046
	C247.417877,237.424484 252.432602,240.221878 257.765656,243.201813
z"/>
<path fill="#3a89ff" opacity="1.000000" stroke="none"
	d="
M114.948303,245.120193
	C109.076370,248.450912 103.512840,251.603912 97.470680,255.028168
	C96.809456,251.649155 95.302834,249.585144 92.797607,247.337570
	C99.989838,242.327240 107.474907,238.778656 114.940414,234.590912
	C116.542206,237.149109 116.895172,239.955765 119.271088,241.178680
	C118.740852,243.625854 116.558617,243.788208 114.948303,245.120193
z"/>
<path fill="#3a89ff" opacity="1.000000" stroke="none"
	d="
M249.936523,168.027939
	C247.182343,169.534042 245.030182,171.468704 241.884628,171.920944
	C240.672363,169.618881 240.173813,166.959579 237.576523,164.849228
	C244.684479,159.724945 252.136246,156.310532 259.425507,152.080475
	C260.995972,154.830276 262.266998,157.055832 263.887970,159.894119
	C259.326447,162.544144 254.784119,165.183029 249.936523,168.027939
z"/>
<path fill="#3a89ff" opacity="1.000000" stroke="none"
	d="
M94.336388,157.960175
	C96.790390,156.866898 96.258362,154.304153 97.810333,152.454376
	C105.411911,155.594574 112.191544,160.258163 119.422249,164.250488
	C118.547890,167.185120 115.266373,168.365250 116.297531,171.790421
	C111.225227,171.286591 108.168861,168.288452 104.607071,166.424591
	C101.814880,164.963455 99.068314,163.403763 96.382103,161.756409
	C95.114746,160.979156 92.937943,160.585587 94.336388,157.960175
z"/>
<path fill="#3a89ff" opacity="1.000000" stroke="none"
	d="
M173.874939,126.777176
	C173.873138,120.552193 173.873138,114.795593 173.873138,108.760986
	C177.166061,108.897873 179.750534,109.819412 182.784698,108.090027
	C182.784698,116.853439 182.784698,124.978081 182.784698,133.346832
	C180.197021,133.339630 177.616577,132.206619 175.241257,133.529724
	C173.145996,131.584427 174.163757,129.284241 173.874939,126.777176
z"/>
<path fill="#3a89ff" opacity="1.000000" stroke="none"
	d="
M183.292786,296.271179
	C183.117188,297.749573 182.573898,299.014435 181.496216,298.469604
	C179.227341,297.322449 177.052567,298.152100 174.230103,298.551605
	C173.668518,290.082153 173.768326,281.979156 174.169189,273.326080
	C177.350754,274.344452 179.889877,274.297394 183.316467,273.096985
	C183.316467,281.099060 183.316467,288.476807 183.292786,296.271179
z"/>
</svg>
