<svg version="1.1" id="Layer_1" xmlns="http://www.w3.org/2000/svg" xmlns:xlink="http://www.w3.org/1999/xlink" x="0px" y="0px"
	 width="100%" viewBox="0 0 2222 2500" enable-background="new 0 0 2222 2500" xml:space="preserve">
<path fill="transparent" opacity="1.000000" stroke="none"
	d="
M1194.000000,2502.000000
	C796.000000,2502.000000 399.000000,2502.000000 2.000000,2502.000000
	C2.000000,1668.666626 2.000000,835.333313 2.000000,2.000000
	C742.666687,2.000000 1483.333374,2.000000 2224.000000,2.000000
	C2224.000000,835.333313 2224.000000,1668.666626 2224.000000,2502.000000
	C1881.000000,2502.000000 1538.000000,2502.000000 1194.000000,2502.000000
M2215.966309,739.974609
	C2215.966309,739.974609 2215.754883,740.168579 2215.796875,738.321838
	C2215.221680,728.716187 2215.144531,719.049561 2213.976318,709.516602
	C2210.669434,682.532227 2203.495117,656.711121 2188.832275,632.057739
	C2170.601074,599.536194 2144.071045,575.311951 2112.398193,556.473633
	C2087.824951,541.858093 2062.887939,527.854309 2038.122070,513.562500
	C1970.153687,474.339325 1902.210449,435.072479 1834.218750,395.889771
	C1773.145264,360.693939 1711.995728,325.629852 1650.925537,290.428284
	C1591.869873,256.387848 1532.904541,222.190842 1473.842041,188.162231
	C1390.292847,140.025650 1306.937744,91.544197 1223.004150,44.086189
	C1182.859497,21.387381 1139.525513,10.554525 1092.872559,15.572373
	C1061.272217,18.971203 1031.812622,28.864063 1004.421753,44.413589
	C956.132507,71.826988 908.356079,100.142273 860.268494,127.912895
	C785.691345,170.981293 711.040039,213.921234 636.407898,256.894409
	C536.419067,314.467957 436.403809,371.995636 336.427887,429.591614
	C262.969330,471.911041 189.508530,514.227051 116.152832,556.724365
	C95.876472,568.471130 77.666672,582.983582 62.336643,600.801208
	C29.029680,639.512878 13.380072,684.678345 12.855590,736.152954
	C12.793125,736.795532 12.730661,737.438171 12.386101,739.925415
	C12.366893,742.924988 12.330885,745.924561 12.330860,748.924133
	C12.328116,1084.235840 12.305567,1419.547485 12.382579,1754.859131
	C12.387312,1775.465820 13.836158,1796.046509 18.355692,1816.208008
	C22.651159,1835.370117 28.218102,1854.153076 39.712753,1872.011230
	C50.297630,1892.371826 64.950966,1909.409058 82.211243,1924.371826
	C98.663048,1938.633667 117.271042,1949.562012 136.063477,1960.353394
	C207.371902,2001.302368 278.498352,2042.568115 349.735046,2083.642090
	C408.853119,2117.728760 468.007385,2151.752930 527.189636,2185.727783
	C566.739563,2208.432617 606.421082,2230.907959 645.944214,2253.658936
	C685.466187,2276.409180 724.845764,2299.406982 764.321228,2322.238281
	C826.567383,2358.239746 888.777466,2394.304443 951.134460,2430.113281
	C976.519348,2444.690430 1001.142822,2460.646729 1028.201416,2472.230713
	C1085.404663,2496.719727 1142.750854,2497.293701 1199.565552,2472.052734
	C1221.690186,2462.223633 1242.729492,2449.818115 1263.802612,2437.780029
	C1335.206665,2396.989746 1406.434937,2355.891602 1477.673218,2314.812012
	C1552.944580,2271.406494 1628.105225,2227.809082 1703.399536,2184.443604
	C1759.946655,2151.875488 1816.668091,2119.610107 1873.241333,2087.087158
	C1950.590088,2042.620850 2027.866455,1998.028564 2105.185547,1953.510376
	C2130.510254,1938.929199 2153.348633,1921.192993 2171.949707,1898.605347
	C2179.060303,1889.971069 2184.239746,1879.746582 2191.237793,1869.228516
	C2210.093750,1833.797607 2217.349854,1795.837280 2216.241211,1754.133423
	C2216.287598,1750.804077 2216.374756,1747.474609 2216.374756,1744.145264
	C2216.377197,1446.092773 2216.365234,1148.040405 2216.380127,849.987915
	C2216.381836,814.023987 2216.526855,778.060059 2216.977295,741.553101
	C2217.126465,740.840271 2216.881836,740.289856 2215.966309,739.974609
z"/>
<path fill="#A179DC" opacity="1.000000" stroke="none"
	d="
M39.553539,1870.627197
	C28.218102,1854.153076 22.651159,1835.370117 18.355692,1816.208008
	C13.836158,1796.046509 12.387312,1775.465820 12.382579,1754.859131
	C12.305567,1419.547485 12.328116,1084.235840 12.330860,748.924133
	C12.330885,745.924561 12.366893,742.924988 12.907808,738.691284
	C13.836870,736.872742 13.927451,736.242676 13.701257,735.567017
	C13.380072,684.678345 29.029680,639.512878 62.336643,600.801208
	C77.666672,582.983582 95.876472,568.471130 116.152832,556.724365
	C189.508530,514.227051 262.969330,471.911041 336.427887,429.591614
	C436.403809,371.995636 536.419067,314.467957 636.407898,256.894409
	C711.040039,213.921234 785.691345,170.981293 860.268494,127.912895
	C908.356079,100.142273 956.132507,71.826988 1004.421753,44.413589
	C1031.812622,28.864063 1061.272217,18.971203 1092.872559,15.572373
	C1139.525513,10.554525 1182.859497,21.387381 1223.004150,44.086189
	C1306.937744,91.544197 1390.292847,140.025650 1473.842041,188.162231
	C1532.904541,222.190842 1591.869873,256.387848 1650.925537,290.428284
	C1711.995728,325.629852 1773.145264,360.693939 1834.218750,395.889771
	C1902.210449,435.072479 1970.153687,474.339325 2038.122070,513.562500
	C2062.887939,527.854309 2087.824951,541.858093 2112.398193,556.473633
	C2144.071045,575.311951 2170.601074,599.536194 2188.376221,632.734375
	C2185.259521,634.780579 2182.537598,636.044250 2179.946777,637.535278
	C2115.254395,674.765564 2050.561035,711.994446 1985.899048,749.277710
	C1932.530273,780.049316 1879.201660,810.890320 1825.907471,840.979370
	C1824.781738,837.578979 1823.976196,834.649536 1822.368896,832.259277
	C1805.460938,807.113708 1789.439331,781.290833 1771.239990,757.109863
	C1709.022705,674.443604 1633.350342,606.323547 1544.959717,552.570007
	C1427.057129,480.869263 1298.839355,442.075775 1161.212158,434.577881
	C1111.902588,431.891510 1062.593384,433.985352 1013.633606,440.545471
	C956.056702,448.260132 899.782837,461.608215 844.979858,481.203339
	C739.354614,518.970337 645.516052,576.114075 563.325745,652.253967
	C478.816986,730.541748 413.905396,822.833984 367.810059,928.438660
	C336.404572,1000.388733 317.565765,1075.754028 306.298706,1153.147827
	C303.812012,1170.229126 302.970490,1187.619019 302.422455,1204.900024
	C300.997864,1249.819580 300.819489,1294.751831 306.174011,1339.482056
	C308.388641,1357.982422 310.877808,1376.474976 314.048737,1394.831665
	C326.594910,1467.462158 348.652985,1537.122437 380.583557,1603.576538
	C389.368683,1621.860352 398.920349,1639.775879 407.495605,1658.172974
	C294.398834,1723.213379 181.918488,1787.927002 69.468697,1852.693726
	C59.395599,1858.495605 49.520565,1864.641235 39.553539,1870.627197
z"/>
<path fill="#280068" opacity="1.000000" stroke="none"
	d="
M39.633148,1871.319214
	C49.520565,1864.641235 59.395599,1858.495605 69.468697,1852.693726
	C181.918488,1787.927002 294.398834,1723.213379 408.039856,1658.587891
	C416.269684,1670.320068 423.102112,1682.095825 430.433136,1693.552612
	C455.240295,1732.320557 483.050964,1768.784058 514.047241,1802.855347
	C560.556274,1853.978638 612.346008,1898.904907 670.254395,1936.648560
	C688.921936,1948.815674 707.480164,1961.442749 727.282593,1971.510376
	C759.709717,1987.996582 792.506104,2004.094849 826.286682,2017.479858
	C856.790955,2029.566528 888.587280,2038.646973 920.264221,2047.428223
	C940.817566,2053.125732 962.140015,2056.125488 983.191772,2059.924561
	C999.867493,2062.933838 1016.583252,2066.002930 1033.414551,2067.786865
	C1049.279419,2069.467773 1065.314453,2070.025146 1081.281860,2070.151123
	C1111.260376,2070.387451 1141.252563,2070.327637 1171.221924,2069.642334
	C1185.912720,2069.306396 1200.571777,2067.362549 1215.229858,2065.983887
	C1218.434204,2065.682373 1221.545410,2064.478027 1224.747559,2064.051025
	C1240.640625,2061.931885 1256.822754,2061.151611 1272.401733,2057.662109
	C1316.765991,2047.724487 1360.638916,2036.186279 1403.495117,2020.443726
	C1472.193481,1995.208496 1535.968506,1961.165405 1595.517578,1918.919556
	C1630.459595,1894.130615 1663.063354,1866.500488 1693.655518,1836.526611
	C1722.704712,1808.064453 1750.081909,1778.019897 1773.815796,1744.985352
	C1792.843140,1718.501587 1810.378174,1690.945435 1829.289307,1663.938477
	C1835.414917,1666.502197 1841.009155,1668.665283 1846.200073,1671.553345
	C1856.377686,1677.215454 1866.302734,1683.329346 1876.381836,1689.171143
	C1904.891357,1705.695312 1933.435669,1722.159546 1961.947876,1738.679077
	C1992.189453,1756.200562 2022.398071,1773.778687 2052.642578,1791.295044
	C2080.869873,1807.643188 2109.094727,1823.996216 2137.379883,1840.244141
	C2154.962646,1850.344238 2172.655762,1860.252441 2190.299316,1870.246826
	C2184.239746,1879.746582 2179.060303,1889.971069 2171.949707,1898.605347
	C2153.348633,1921.192993 2130.510254,1938.929199 2105.185547,1953.510376
	C2027.866455,1998.028564 1950.590088,2042.620850 1873.241333,2087.087158
	C1816.668091,2119.610107 1759.946655,2151.875488 1703.399536,2184.443604
	C1628.105225,2227.809082 1552.944580,2271.406494 1477.673218,2314.812012
	C1406.434937,2355.891602 1335.206665,2396.989746 1263.802612,2437.780029
	C1242.729492,2449.818115 1221.690186,2462.223633 1199.565552,2472.052734
	C1142.750854,2497.293701 1085.404663,2496.719727 1028.201416,2472.230713
	C1001.142822,2460.646729 976.519348,2444.690430 951.134460,2430.113281
	C888.777466,2394.304443 826.567383,2358.239746 764.321228,2322.238281
	C724.845764,2299.406982 685.466187,2276.409180 645.944214,2253.658936
	C606.421082,2230.907959 566.739563,2208.432617 527.189636,2185.727783
	C468.007385,2151.752930 408.853119,2117.728760 349.735046,2083.642090
	C278.498352,2042.568115 207.371902,2001.302368 136.063477,1960.353394
	C117.271042,1949.562012 98.663048,1938.633667 82.211243,1924.371826
	C64.950966,1909.409058 50.297630,1892.371826 39.633148,1871.319214
z"/>
<path fill="#390091" opacity="1.000000" stroke="none"
	d="
M2190.768555,1869.737671
	C2172.655762,1860.252441 2154.962646,1850.344238 2137.379883,1840.244141
	C2109.094727,1823.996216 2080.869873,1807.643188 2052.642578,1791.295044
	C2022.398071,1773.778687 1992.189453,1756.200562 1961.947876,1738.679077
	C1933.435669,1722.159546 1904.891357,1705.695312 1876.381836,1689.171143
	C1866.302734,1683.329346 1856.377686,1677.215454 1846.200073,1671.553345
	C1841.009155,1668.665283 1835.414917,1666.502197 1829.211060,1663.218018
	C1826.498291,1660.781250 1824.778198,1658.792236 1822.627930,1657.544556
	C1708.667236,1591.408447 1594.675659,1525.325684 1480.640503,1459.318115
	C1478.204590,1457.908081 1475.223511,1457.439819 1472.020996,1455.995361
	C1467.935059,1453.090576 1464.421997,1450.556274 1460.697754,1448.384033
	C1445.460571,1439.497437 1430.141113,1430.752075 1414.885010,1421.897583
	C1384.372070,1404.188477 1353.897705,1386.412964 1323.375977,1368.719116
	C1295.158569,1352.361328 1266.894165,1336.084595 1238.661255,1319.753784
	C1207.258667,1301.589478 1175.811279,1283.501099 1144.509399,1265.164917
	C1135.966309,1260.160400 1127.875366,1254.383667 1120.026367,1248.484375
	C1123.028442,1246.443481 1125.545654,1244.818115 1128.138672,1243.324585
	C1235.438721,1181.520630 1342.753540,1119.742432 1450.031738,1057.900757
	C1456.893311,1053.945312 1463.476807,1049.507812 1470.935791,1045.166016
	C1476.641602,1042.327271 1481.654541,1039.710083 1486.552734,1036.893188
	C1599.661133,971.842224 1712.756958,906.769348 1825.855225,841.700684
	C1879.201660,810.890320 1932.530273,780.049316 1985.899048,749.277710
	C2050.561035,711.994446 2115.254395,674.765564 2179.946777,637.535278
	C2182.537598,636.044250 2185.259521,634.780579 2188.629883,633.299316
	C2203.495117,656.711121 2210.669434,682.532227 2213.976318,709.516602
	C2215.144531,719.049561 2215.221680,728.716187 2215.325684,739.920044
	C2214.569580,745.808960 2214.037109,750.099609 2214.035889,754.390381
	C2213.992920,902.915100 2214.000000,1051.439819 2214.000000,1199.964600
	C2214.000000,1380.791870 2213.986084,1561.619019 2214.080566,1742.446289
	C2214.083008,1746.959595 2215.287354,1751.472290 2215.931152,1755.985352
	C2217.349854,1795.837280 2210.093750,1833.797607 2190.768555,1869.737671
M1927.375366,1474.271729
	C1927.375854,1462.273682 1927.376465,1450.275757 1927.376709,1438.277710
	C1927.376831,1425.946289 1927.317871,1413.614380 1927.393677,1401.283447
	C1927.466309,1389.447632 1927.059814,1377.585205 1927.690674,1365.003296
	C1966.802246,1365.003296 2004.668091,1365.003296 2042.710449,1365.003296
	C2042.710449,1345.465088 2042.710449,1326.750000 2042.710449,1307.150635
	C2004.042480,1307.150635 1966.163940,1307.150635 1928.092041,1307.150635
	C1928.092041,1268.159912 1928.092041,1230.057129 1928.092041,1191.399292
	C1938.425537,1191.399292 1948.051270,1191.399292 1957.677124,1191.399292
	C1967.009033,1191.399292 1976.341064,1191.399292 1985.672974,1191.399292
	C1995.338135,1191.399292 2005.004028,1191.467896 2014.668457,1191.379761
	C2024.156860,1191.293335 2033.691528,1191.796021 2042.902710,1191.030518
	C2042.902710,1171.039551 2042.902710,1152.490234 2042.902710,1133.010498
	C2029.702393,1133.010498 2017.086426,1133.010498 2004.470337,1133.010498
	C1991.472290,1133.010498 1978.473999,1133.056274 1965.476196,1132.997314
	C1952.983032,1132.940552 1940.469116,1133.275757 1927.034668,1132.711914
	C1927.034668,1093.611206 1927.034668,1055.787109 1927.034668,1018.140991
	C1914.154663,1016.163635 1876.745117,1016.620178 1868.883057,1018.956238
	C1868.883057,1056.483765 1868.883057,1094.305786 1868.883057,1132.557617
	C1830.049072,1132.557617 1792.176147,1132.557617 1752.963867,1132.557617
	C1752.963867,1094.037598 1752.963867,1055.942383 1752.963867,1017.582764
	C1733.126221,1017.582764 1714.631836,1017.582764 1695.017090,1017.582764
	C1695.017090,1030.693970 1695.017090,1043.261841 1695.017090,1055.829712
	C1695.017090,1068.827759 1695.098633,1081.826294 1694.993652,1094.823486
	C1694.892700,1107.330688 1695.483765,1119.873291 1694.505737,1133.211426
	C1655.588379,1133.211426 1617.720581,1133.211426 1579.504883,1133.211426
	C1579.504883,1152.923096 1579.504883,1171.720337 1579.504883,1191.399292
	C1592.772949,1191.399292 1605.365601,1191.399292 1617.958252,1191.399292
	C1630.956299,1191.399292 1643.954834,1191.332764 1656.952271,1191.418457
	C1669.430176,1191.500732 1681.938110,1191.019287 1694.358887,1191.759521
	C1694.358887,1230.857056 1694.358887,1268.698486 1694.358887,1307.406860
	C1681.122314,1307.406860 1668.528564,1307.406860 1655.934814,1307.406860
	C1642.936768,1307.406860 1629.937988,1307.311157 1616.941040,1307.434448
	C1604.457886,1307.552856 1591.932739,1306.859375 1579.531006,1307.927124
	C1579.531006,1327.489990 1579.531006,1345.970581 1579.531006,1365.327271
	C1618.101440,1365.327271 1655.972656,1365.327271 1694.985596,1365.327271
	C1694.985596,1404.347046 1694.985596,1442.493774 1694.985596,1480.935059
	C1714.879517,1480.935059 1733.611328,1480.935059 1753.124146,1480.935059
	C1753.124146,1467.600952 1753.124268,1454.983398 1753.124268,1442.365845
	C1753.124268,1429.367798 1753.074463,1416.369507 1753.138184,1403.371826
	C1753.199463,1390.877930 1752.838745,1378.362061 1753.400024,1365.934326
	C1792.566040,1365.934326 1830.437012,1365.934326 1869.447021,1365.934326
	C1869.447021,1404.571289 1869.447021,1442.692505 1869.447021,1481.617310
	C1888.171631,1481.617310 1905.765625,1481.620728 1923.359741,1481.614502
	C1927.181396,1481.613159 1927.366699,1478.925903 1927.375366,1474.271729
z"/>
<path fill="#450E9A" opacity="1.000000" stroke="none"
	d="
M2216.085938,1755.059326
	C2215.287354,1751.472290 2214.083008,1746.959595 2214.080566,1742.446289
	C2213.986084,1561.619019 2214.000000,1380.791870 2214.000000,1199.964600
	C2214.000000,1051.439819 2213.992920,902.915100 2214.035889,754.390381
	C2214.037109,750.099609 2214.569580,745.808960 2215.304688,740.843384
	C2215.754883,740.168579 2215.966309,739.974609 2216.122559,740.498779
	C2216.387939,741.380737 2216.496826,741.738464 2216.605469,742.096130
	C2216.526855,778.060059 2216.381836,814.023987 2216.380127,849.987915
	C2216.365234,1148.040405 2216.377197,1446.092773 2216.374756,1744.145264
	C2216.374756,1747.474609 2216.287598,1750.804077 2216.085938,1755.059326
z"/>
<path fill="#795AA6" opacity="1.000000" stroke="none"
	d="
M13.278423,735.859985
	C13.927451,736.242676 13.836870,736.872742 13.048857,737.768982
	C12.730661,737.438171 12.793125,736.795532 13.278423,735.859985
z"/>
<path fill="#1B0E2D" opacity="1.000000" stroke="none"
	d="
M2216.791504,741.824585
	C2216.496826,741.738464 2216.387939,741.380737 2216.261230,740.462402
	C2216.881836,740.289856 2217.126465,740.840271 2216.791504,741.824585
z"/>
<path fill="#FFFFFF" opacity="1.000000" stroke="none"
	d="
M1825.907471,840.979370
	C1712.756958,906.769348 1599.661133,971.842224 1486.552734,1036.893188
	C1481.654541,1039.710083 1476.641602,1042.327271 1470.820068,1044.402100
	C1455.360474,1018.984375 1438.160767,996.164368 1418.563354,975.110840
	C1370.813354,923.812561 1313.702271,887.021790 1247.202759,865.048462
	C1198.955933,849.106445 1149.385620,842.823608 1098.557983,845.452332
	C1064.073608,847.235779 1030.381958,852.994324 997.596069,863.533447
	C908.941833,892.031677 837.758667,944.557983 784.459534,1020.875000
	C740.044006,1084.471802 716.012207,1155.482544 712.605957,1232.807617
	C710.394592,1283.007324 716.685608,1332.588745 733.067688,1380.439697
	C741.588135,1405.327148 751.272583,1429.755127 765.733643,1452.737915
	C797.367676,1509.588379 840.291748,1555.157837 893.428345,1591.306885
	C915.411377,1606.262085 938.890076,1618.571899 963.023010,1629.464966
	C983.100342,1638.527588 1004.410522,1644.473877 1025.787354,1649.781372
	C1038.732544,1652.995483 1051.823853,1655.944946 1065.023560,1657.715454
	C1077.096313,1659.334717 1089.396362,1659.413086 1101.607910,1659.809570
	C1127.850098,1660.661499 1153.979492,1659.711670 1180.065186,1656.091919
	C1201.041992,1653.181396 1221.437012,1647.989258 1241.514648,1641.741821
	C1294.613892,1625.219116 1342.354614,1598.743774 1384.695923,1562.600464
	C1408.851440,1541.981079 1430.497803,1519.004517 1448.966797,1493.191040
	C1457.405151,1481.397095 1464.689209,1468.777344 1472.496826,1456.532227
	C1475.223511,1457.439819 1478.204590,1457.908081 1480.640503,1459.318115
	C1594.675659,1525.325684 1708.667236,1591.408447 1822.627930,1657.544556
	C1824.778198,1658.792236 1826.498291,1660.781250 1828.497314,1663.144775
	C1810.378174,1690.945435 1792.843140,1718.501587 1773.815796,1744.985352
	C1750.081909,1778.019897 1722.704712,1808.064453 1693.655518,1836.526611
	C1663.063354,1866.500488 1630.459595,1894.130615 1595.517578,1918.919556
	C1535.968506,1961.165405 1472.193481,1995.208496 1403.495117,2020.443726
	C1360.638916,2036.186279 1316.765991,2047.724487 1272.401733,2057.662109
	C1256.822754,2061.151611 1240.640625,2061.931885 1224.747559,2064.051025
	C1221.545410,2064.478027 1218.434204,2065.682373 1215.229858,2065.983887
	C1200.571777,2067.362549 1185.912720,2069.306396 1171.221924,2069.642334
	C1141.252563,2070.327637 1111.260376,2070.387451 1081.281860,2070.151123
	C1065.314453,2070.025146 1049.279419,2069.467773 1033.414551,2067.786865
	C1016.583252,2066.002930 999.867493,2062.933838 983.191772,2059.924561
	C962.140015,2056.125488 940.817566,2053.125732 920.264221,2047.428223
	C888.587280,2038.646973 856.790955,2029.566528 826.286682,2017.479858
	C792.506104,2004.094849 759.709717,1987.996582 727.282593,1971.510376
	C707.480164,1961.442749 688.921936,1948.815674 670.254395,1936.648560
	C612.346008,1898.904907 560.556274,1853.978638 514.047241,1802.855347
	C483.050964,1768.784058 455.240295,1732.320557 430.433136,1693.552612
	C423.102112,1682.095825 416.269684,1670.320068 408.664520,1658.275391
	C398.920349,1639.775879 389.368683,1621.860352 380.583557,1603.576538
	C348.652985,1537.122437 326.594910,1467.462158 314.048737,1394.831665
	C310.877808,1376.474976 308.388641,1357.982422 306.174011,1339.482056
	C300.819489,1294.751831 300.997864,1249.819580 302.422455,1204.900024
	C302.970490,1187.619019 303.812012,1170.229126 306.298706,1153.147827
	C317.565765,1075.754028 336.404572,1000.388733 367.810059,928.438660
	C413.905396,822.833984 478.816986,730.541748 563.325745,652.253967
	C645.516052,576.114075 739.354614,518.970337 844.979858,481.203339
	C899.782837,461.608215 956.056702,448.260132 1013.633606,440.545471
	C1062.593384,433.985352 1111.902588,431.891510 1161.212158,434.577881
	C1298.839355,442.075775 1427.057129,480.869263 1544.959717,552.570007
	C1633.350342,606.323547 1709.022705,674.443604 1771.239990,757.109863
	C1789.439331,781.290833 1805.460938,807.113708 1822.368896,832.259277
	C1823.976196,834.649536 1824.781738,837.578979 1825.907471,840.979370
z"/>
<path fill="#A179DC" opacity="1.000000" stroke="none"
	d="
M765.620239,1452.026001
	C751.272583,1429.755127 741.588135,1405.327148 733.067688,1380.439697
	C716.685608,1332.588745 710.394592,1283.007324 712.605957,1232.807617
	C716.012207,1155.482544 740.044006,1084.471802 784.459534,1020.875000
	C837.758667,944.557983 908.941833,892.031677 997.596069,863.533447
	C1030.381958,852.994324 1064.073608,847.235779 1098.557983,845.452332
	C1149.385620,842.823608 1198.955933,849.106445 1247.202759,865.048462
	C1313.702271,887.021790 1370.813354,923.812561 1418.563354,975.110840
	C1438.160767,996.164368 1455.360474,1018.984375 1470.073975,1044.530518
	C1463.476807,1049.507812 1456.893311,1053.945312 1450.031738,1057.900757
	C1342.753540,1119.742432 1235.438721,1181.520630 1128.138672,1243.324585
	C1125.545654,1244.818115 1123.028442,1246.443481 1119.343018,1248.712891
	C1116.719482,1250.152588 1115.182129,1250.805786 1113.744995,1251.632812
	C997.698425,1318.421875 881.659607,1385.224365 765.620239,1452.026001
z"/>
<path fill="#280068" opacity="1.000000" stroke="none"
	d="
M765.733643,1452.737915
	C881.659607,1385.224365 997.698425,1318.421875 1113.744995,1251.632812
	C1115.182129,1250.805786 1116.719482,1250.152588 1118.893555,1249.189819
	C1127.875366,1254.383667 1135.966309,1260.160400 1144.509399,1265.164917
	C1175.811279,1283.501099 1207.258667,1301.589478 1238.661255,1319.753784
	C1266.894165,1336.084595 1295.158569,1352.361328 1323.375977,1368.719116
	C1353.897705,1386.412964 1384.372070,1404.188477 1414.885010,1421.897583
	C1430.141113,1430.752075 1445.460571,1439.497437 1460.697754,1448.384033
	C1464.421997,1450.556274 1467.935059,1453.090576 1472.020996,1455.995361
	C1464.689209,1468.777344 1457.405151,1481.397095 1448.966797,1493.191040
	C1430.497803,1519.004517 1408.851440,1541.981079 1384.695923,1562.600464
	C1342.354614,1598.743774 1294.613892,1625.219116 1241.514648,1641.741821
	C1221.437012,1647.989258 1201.041992,1653.181396 1180.065186,1656.091919
	C1153.979492,1659.711670 1127.850098,1660.661499 1101.607910,1659.809570
	C1089.396362,1659.413086 1077.096313,1659.334717 1065.023560,1657.715454
	C1051.823853,1655.944946 1038.732544,1652.995483 1025.787354,1649.781372
	C1004.410522,1644.473877 983.100342,1638.527588 963.023010,1629.464966
	C938.890076,1618.571899 915.411377,1606.262085 893.428345,1591.306885
	C840.291748,1555.157837 797.367676,1509.588379 765.733643,1452.737915
z"/>
<path fill="#FFFFFF" opacity="1.000000" stroke="none"
	d="
M1927.371582,1475.195923
	C1927.366699,1478.925903 1927.181396,1481.613159 1923.359741,1481.614502
	C1905.765625,1481.620728 1888.171631,1481.617310 1869.447021,1481.617310
	C1869.447021,1442.692505 1869.447021,1404.571289 1869.447021,1365.934326
	C1830.437012,1365.934326 1792.566040,1365.934326 1753.400024,1365.934326
	C1752.838745,1378.362061 1753.199463,1390.877930 1753.138184,1403.371826
	C1753.074463,1416.369507 1753.124268,1429.367798 1753.124268,1442.365845
	C1753.124268,1454.983398 1753.124146,1467.600952 1753.124146,1480.935059
	C1733.611328,1480.935059 1714.879517,1480.935059 1694.985596,1480.935059
	C1694.985596,1442.493774 1694.985596,1404.347046 1694.985596,1365.327271
	C1655.972656,1365.327271 1618.101440,1365.327271 1579.531006,1365.327271
	C1579.531006,1345.970581 1579.531006,1327.489990 1579.531006,1307.927124
	C1591.932739,1306.859375 1604.457886,1307.552856 1616.941040,1307.434448
	C1629.937988,1307.311157 1642.936768,1307.406860 1655.934814,1307.406860
	C1668.528564,1307.406860 1681.122314,1307.406860 1694.358887,1307.406860
	C1694.358887,1268.698486 1694.358887,1230.857056 1694.358887,1191.759521
	C1681.938110,1191.019287 1669.430176,1191.500732 1656.952271,1191.418457
	C1643.954834,1191.332764 1630.956299,1191.399292 1617.958252,1191.399292
	C1605.365601,1191.399292 1592.772949,1191.399292 1579.504883,1191.399292
	C1579.504883,1171.720337 1579.504883,1152.923096 1579.504883,1133.211426
	C1617.720581,1133.211426 1655.588379,1133.211426 1694.505737,1133.211426
	C1695.483765,1119.873291 1694.892700,1107.330688 1694.993652,1094.823486
	C1695.098633,1081.826294 1695.017090,1068.827759 1695.017090,1055.829712
	C1695.017090,1043.261841 1695.017090,1030.693970 1695.017090,1017.582764
	C1714.631836,1017.582764 1733.126221,1017.582764 1752.963867,1017.582764
	C1752.963867,1055.942383 1752.963867,1094.037598 1752.963867,1132.557617
	C1792.176147,1132.557617 1830.049072,1132.557617 1868.883057,1132.557617
	C1868.883057,1094.305786 1868.883057,1056.483765 1868.883057,1018.956238
	C1876.745117,1016.620178 1914.154663,1016.163635 1927.034668,1018.140991
	C1927.034668,1055.787109 1927.034668,1093.611206 1927.034668,1132.711914
	C1940.469116,1133.275757 1952.983032,1132.940552 1965.476196,1132.997314
	C1978.473999,1133.056274 1991.472290,1133.010498 2004.470337,1133.010498
	C2017.086426,1133.010498 2029.702393,1133.010498 2042.902710,1133.010498
	C2042.902710,1152.490234 2042.902710,1171.039551 2042.902710,1191.030518
	C2033.691528,1191.796021 2024.156860,1191.293335 2014.668457,1191.379761
	C2005.004028,1191.467896 1995.338135,1191.399292 1985.672974,1191.399292
	C1976.341064,1191.399292 1967.009033,1191.399292 1957.677124,1191.399292
	C1948.051270,1191.399292 1938.425537,1191.399292 1928.092041,1191.399292
	C1928.092041,1230.057129 1928.092041,1268.159912 1928.092041,1307.150635
	C1966.163940,1307.150635 2004.042480,1307.150635 2042.710449,1307.150635
	C2042.710449,1326.750000 2042.710449,1345.465088 2042.710449,1365.003296
	C2004.668091,1365.003296 1966.802246,1365.003296 1927.690674,1365.003296
	C1927.059814,1377.585205 1927.466309,1389.447632 1927.393677,1401.283447
	C1927.317871,1413.614380 1927.376831,1425.946289 1927.376709,1438.277710
	C1927.376465,1450.275757 1927.375854,1462.273682 1927.371582,1475.195923
M1869.299561,1217.078613
	C1869.299561,1208.818359 1869.299561,1200.557983 1869.299561,1192.066162
	C1830.062988,1192.066162 1791.924805,1192.066162 1753.676270,1192.066162
	C1753.676270,1230.596191 1753.676270,1268.458008 1753.676270,1306.215820
	C1764.525757,1308.187378 1861.300415,1307.792114 1869.299561,1305.622681
	C1869.299561,1276.923706 1869.299561,1247.989990 1869.299561,1217.078613
z"/>
<path fill="#390091" opacity="1.000000" stroke="none"
	d="
M1869.299561,1218.067383
	C1869.299561,1247.989990 1869.299561,1276.923706 1869.299561,1305.622681
	C1861.300415,1307.792114 1764.525757,1308.187378 1753.676270,1306.215820
	C1753.676270,1268.458008 1753.676270,1230.596191 1753.676270,1192.066162
	C1791.924805,1192.066162 1830.062988,1192.066162 1869.299561,1192.066162
	C1869.299561,1200.557983 1869.299561,1208.818359 1869.299561,1218.067383
z"/>
</svg>
