<svg version="1.1" id="Layer_1" xmlns="http://www.w3.org/2000/svg" xmlns:xlink="http://www.w3.org/1999/xlink" x="0px" y="0px"
	 width="100%" viewBox="0 0 2560 1920" enable-background="new 0 0 2560 1920" xml:space="preserve">
<path fill="transparent" opacity="1.000000" stroke="none" 
	d="
M1230.000000,2.000000 
	C1673.860718,2.000000 2117.721436,2.000000 2562.000000,2.000000 
	C2562.000000,448.720276 2562.000000,895.440735 2561.379883,1343.709473 
	C2559.819336,1342.860596 2558.495117,1340.539673 2557.999023,1338.053589 
	C2553.742188,1316.705688 2546.579346,1296.317749 2536.653320,1277.038086 
	C2518.444336,1241.669556 2493.405029,1211.732178 2462.447998,1186.791382 
	C2398.136475,1134.978516 2323.207031,1111.889893 2242.075928,1106.476562 
	C2203.507812,1103.903320 2164.986816,1105.722290 2126.707275,1111.684448 
	C2085.463135,1118.108398 2045.404175,1128.739014 2006.831055,1144.773071 
	C1996.197144,1149.193359 1985.646362,1153.813232 1974.589355,1158.541626 
	C1964.929443,1139.317139 1956.294312,1120.563477 1946.297852,1102.566040 
	C1925.890137,1065.824463 1919.499756,1025.638916 1916.515991,984.691833 
	C1914.768311,960.706970 1917.276367,936.757568 1923.726562,913.559326 
	C1930.581421,888.906555 1938.503906,864.547791 1946.121094,840.110901 
	C1950.337402,826.584534 1947.550659,818.854065 1935.500732,811.623596 
	C1924.291016,804.897339 1911.778076,803.004456 1899.135742,802.447388 
	C1878.509888,801.538635 1857.828369,802.168762 1837.532715,806.046021 
	C1825.213501,808.399414 1813.148560,812.355164 1801.206055,816.306641 
	C1794.258423,818.605408 1789.946533,823.900452 1787.939819,831.359741 
	C1785.004883,842.269714 1780.967529,852.882019 1778.001099,863.784790 
	C1773.465698,880.452820 1771.039185,897.878418 1764.846924,913.871033 
	C1754.296509,941.119202 1742.967651,968.268311 1729.367554,994.090637 
	C1702.093262,1045.875854 1673.214844,1096.820801 1644.681030,1147.935303 
	C1634.806519,1165.624023 1623.990723,1182.787354 1612.727661,1201.660767 
	C1607.758911,1191.819458 1603.759155,1183.142090 1599.113403,1174.825562 
	C1578.068726,1137.152344 1572.793213,1095.687988 1570.516724,1053.711426 
	C1568.972046,1025.231934 1574.613159,997.440063 1582.810303,970.262451 
	C1588.759888,950.536194 1595.240479,930.963928 1601.842163,911.444153 
	C1603.755615,905.787109 1603.179810,900.712830 1599.617920,896.521179 
	C1596.263062,892.573303 1592.229614,888.792053 1587.737549,886.304993 
	C1578.010742,880.919678 1567.174683,878.420288 1556.113647,878.455994 
	C1538.859375,878.511719 1521.546509,878.638306 1504.375610,880.105957 
	C1492.210449,881.145691 1480.197632,884.254578 1468.190552,886.789124 
	C1451.879150,890.232239 1443.057373,899.817383 1439.315796,916.780151 
	C1434.103271,940.412231 1428.140869,964.272156 1418.913330,986.549133 
	C1394.355713,1045.836060 1368.101440,1104.426636 1342.102539,1163.108276 
	C1315.970093,1222.090942 1289.745483,1281.039917 1262.776855,1339.642822 
	C1243.312988,1381.937622 1222.706909,1423.710815 1202.285034,1465.557983 
	C1197.489868,1475.384033 1191.502075,1484.642578 1185.792480,1493.996948 
	C1184.413696,1496.255615 1181.958008,1497.856934 1178.865723,1500.859497 
	C1177.797729,1494.714111 1176.775269,1490.546631 1176.388916,1486.320923 
	C1174.342896,1463.937988 1176.785278,1441.848022 1181.187866,1419.926636 
	C1196.384399,1344.258057 1216.845825,1269.899414 1237.013916,1195.465332 
	C1239.704102,1185.536377 1242.092407,1175.475342 1243.768555,1165.334595 
	C1245.930176,1152.255981 1240.627930,1141.837036 1230.077271,1134.229492 
	C1219.289062,1126.450806 1207.009277,1122.472534 1193.772095,1121.729492 
	C1183.773193,1121.168335 1174.736816,1124.053589 1166.769287,1130.241699 
	C1164.302612,1132.157471 1161.609131,1133.781372 1157.914185,1136.289185 
	C1159.118042,1126.846069 1160.397583,1118.996094 1161.075684,1111.094482 
	C1163.418579,1083.796631 1163.973877,1056.557617 1155.683594,1029.985718 
	C1147.421753,1003.504822 1131.402344,984.316284 1103.750244,976.805481 
	C1089.434448,972.916931 1074.815063,972.664856 1060.201172,975.042603 
	C1033.554810,979.378052 1009.115784,989.790894 986.122864,1003.453003 
	C935.447266,1033.563965 892.480103,1072.400146 857.030884,1119.513428 
	C853.211304,1124.589722 849.169189,1129.045776 843.153687,1131.926270 
	C833.867798,1136.372803 825.039795,1141.771729 815.994019,1146.723755 
	C757.631653,1178.673340 699.268005,1210.620728 640.892700,1242.546753 
	C626.367188,1250.490967 611.797058,1258.353760 597.782410,1265.963501 
	C581.555481,1250.195190 566.876831,1234.146973 550.376038,1220.264282 
	C514.761658,1190.300659 478.480652,1161.109131 441.975800,1132.229492 
	C397.640228,1097.154907 352.314270,1063.357788 310.915283,1024.656616 
	C283.062775,998.619202 257.771515,970.576782 236.643967,938.822937 
	C198.114212,880.914490 187.311066,817.804321 201.136932,750.037415 
	C209.767792,707.733643 227.239197,669.183105 250.450516,633.027649 
	C282.922882,582.446472 324.047211,539.542542 368.882080,500.008453 
	C408.634125,464.956299 451.265869,433.603180 495.546753,404.591583 
	C576.131042,351.795074 660.466370,305.689362 747.933411,265.320831 
	C791.457153,245.233368 836.073486,227.803116 881.538330,212.729111 
	C931.732117,196.087143 982.802185,182.666275 1034.898315,173.080048 
	C1075.796387,165.554382 1116.963013,160.518280 1158.416992,158.617447 
	C1182.297852,157.522400 1206.307495,159.158997 1230.256958,159.670273 
	C1254.244873,160.182343 1277.911865,163.624039 1301.397461,168.219986 
	C1339.510376,175.678406 1376.253296,187.161926 1409.383667,208.030014 
	C1433.132080,222.988617 1453.101440,241.534073 1464.491455,268.129150 
	C1478.016602,299.708984 1480.328125,332.394684 1475.144165,365.855042 
	C1468.898560,406.167755 1453.683716,443.234192 1433.262939,478.311188 
	C1402.104370,531.832947 1361.391602,577.289001 1314.614258,617.416443 
	C1259.150391,664.995422 1197.372559,702.631287 1130.483276,731.898376 
	C1067.410645,759.495667 1001.849731,778.765137 933.881104,789.738220 
	C894.855591,796.038635 855.797058,800.646973 816.009094,798.590149 
	C776.781433,796.562378 738.693787,789.961914 702.365784,775.135071 
	C673.847412,763.495605 647.262207,748.511353 626.834900,724.466370 
	C622.776306,719.689087 617.950317,715.384583 612.873108,711.694641 
	C605.615967,706.420532 596.318848,709.450745 593.816101,718.077026 
	C592.491150,722.643799 592.284302,728.020569 593.254395,732.681702 
	C597.044495,750.891663 605.324158,767.078064 616.983948,781.572083 
	C648.559875,820.823486 689.383057,846.734558 736.089233,864.112366 
	C759.893860,872.969360 784.661499,877.749756 809.759155,881.104797 
	C837.478638,884.810364 865.367615,886.457764 893.266907,886.100708 
	C917.154785,885.794983 941.078186,884.312195 964.877441,882.153748 
	C988.331482,880.026672 1011.800903,877.272705 1034.996338,873.252014 
	C1090.784180,863.581543 1145.168945,848.479492 1198.649902,829.818665 
	C1291.624512,797.377319 1372.803467,746.091797 1443.442383,677.881897 
	C1471.005981,651.266174 1495.981689,622.295593 1518.336304,591.112122 
	C1553.903198,541.498474 1581.798096,488.047028 1599.398193,429.437988 
	C1608.223511,400.049164 1613.710693,369.954803 1615.391846,339.392517 
	C1616.393066,321.189636 1615.488647,302.780853 1614.075928,284.570526 
	C1612.063110,258.625916 1606.433716,233.324936 1596.818726,209.024887 
	C1576.801514,158.435638 1542.267090,119.768059 1498.009644,89.224182 
	C1456.487915,60.568363 1410.637085,41.291821 1362.255615,27.767616 
	C1327.318115,18.001411 1291.790894,11.193116 1255.662964,7.662810 
	C1248.065796,6.920444 1240.450806,6.351175 1232.863525,5.523952 
	C1231.106079,5.332338 1227.949219,5.589366 1230.000000,2.000000 
z"/>
<path fill="#CC6698" opacity="1.000000" stroke="none" 
	d="
M1229.062744,2.000000 
	C1227.949219,5.589366 1231.106079,5.332338 1232.863525,5.523952 
	C1240.450806,6.351175 1248.065796,6.920444 1255.662964,7.662810 
	C1291.790894,11.193116 1327.318115,18.001411 1362.255615,27.767616 
	C1410.637085,41.291821 1456.487915,60.568363 1498.009644,89.224182 
	C1542.267090,119.768059 1576.801514,158.435638 1596.818726,209.024887 
	C1606.433716,233.324936 1612.063110,258.625916 1614.075928,284.570526 
	C1615.488647,302.780853 1616.393066,321.189636 1615.391846,339.392517 
	C1613.710693,369.954803 1608.223511,400.049164 1599.398193,429.437988 
	C1581.798096,488.047028 1553.903198,541.498474 1518.336304,591.112122 
	C1495.981689,622.295593 1471.005981,651.266174 1443.442383,677.881897 
	C1372.803467,746.091797 1291.624512,797.377319 1198.649902,829.818665 
	C1145.168945,848.479492 1090.784180,863.581543 1034.996338,873.252014 
	C1011.800903,877.272705 988.331482,880.026672 964.877441,882.153748 
	C941.078186,884.312195 917.154785,885.794983 893.266907,886.100708 
	C865.367615,886.457764 837.478638,884.810364 809.759155,881.104797 
	C784.661499,877.749756 759.893860,872.969360 736.089233,864.112366 
	C689.383057,846.734558 648.559875,820.823486 616.983948,781.572083 
	C605.324158,767.078064 597.044495,750.891663 593.254395,732.681702 
	C592.284302,728.020569 592.491150,722.643799 593.816101,718.077026 
	C596.318848,709.450745 605.615967,706.420532 612.873108,711.694641 
	C617.950317,715.384583 622.776306,719.689087 626.834900,724.466370 
	C647.262207,748.511353 673.847412,763.495605 702.365784,775.135071 
	C738.693787,789.961914 776.781433,796.562378 816.009094,798.590149 
	C855.797058,800.646973 894.855591,796.038635 933.881104,789.738220 
	C1001.849731,778.765137 1067.410645,759.495667 1130.483276,731.898376 
	C1197.372559,702.631287 1259.150391,664.995422 1314.614258,617.416443 
	C1361.391602,577.289001 1402.104370,531.832947 1433.262939,478.311188 
	C1453.683716,443.234192 1468.898560,406.167755 1475.144165,365.855042 
	C1480.328125,332.394684 1478.016602,299.708984 1464.491455,268.129150 
	C1453.101440,241.534073 1433.132080,222.988617 1409.383667,208.030014 
	C1376.253296,187.161926 1339.510376,175.678406 1301.397461,168.219986 
	C1277.911865,163.624039 1254.244873,160.182343 1230.256958,159.670273 
	C1206.307495,159.158997 1182.297852,157.522400 1158.416992,158.617447 
	C1116.963013,160.518280 1075.796387,165.554382 1034.898315,173.080048 
	C982.802185,182.666275 931.732117,196.087143 881.538330,212.729111 
	C836.073486,227.803116 791.457153,245.233368 747.933411,265.320831 
	C660.466370,305.689362 576.131042,351.795074 495.546753,404.591583 
	C451.265869,433.603180 408.634125,464.956299 368.882080,500.008453 
	C324.047211,539.542542 282.922882,582.446472 250.450516,633.027649 
	C227.239197,669.183105 209.767792,707.733643 201.136932,750.037415 
	C187.311066,817.804321 198.114212,880.914490 236.643967,938.822937 
	C257.771515,970.576782 283.062775,998.619202 310.915283,1024.656616 
	C352.314270,1063.357788 397.640228,1097.154907 441.975800,1132.229492 
	C478.480652,1161.109131 514.761658,1190.300659 550.376038,1220.264282 
	C566.876831,1234.146973 581.555481,1250.195190 597.782410,1265.963501 
	C611.797058,1258.353760 626.367188,1250.490967 640.892700,1242.546753 
	C699.268005,1210.620728 757.631653,1178.673340 815.994019,1146.723755 
	C825.039795,1141.771729 833.867798,1136.372803 843.153687,1131.926270 
	C849.169189,1129.045776 853.211304,1124.589722 857.030884,1119.513428 
	C892.480103,1072.400146 935.447266,1033.563965 986.122864,1003.453003 
	C1009.115784,989.790894 1033.554810,979.378052 1060.201172,975.042603 
	C1074.815063,972.664856 1089.434448,972.916931 1103.750244,976.805481 
	C1131.402344,984.316284 1147.421753,1003.504822 1155.683594,1029.985718 
	C1163.973877,1056.557617 1163.418579,1083.796631 1161.075684,1111.094482 
	C1160.397583,1118.996094 1159.118042,1126.846069 1157.914185,1136.289185 
	C1161.609131,1133.781372 1164.302612,1132.157471 1166.769287,1130.241699 
	C1174.736816,1124.053589 1183.773193,1121.168335 1193.772095,1121.729492 
	C1207.009277,1122.472534 1219.289062,1126.450806 1230.077271,1134.229492 
	C1240.627930,1141.837036 1245.930176,1152.255981 1243.768555,1165.334595 
	C1242.092407,1175.475342 1239.704102,1185.536377 1237.013916,1195.465332 
	C1216.845825,1269.899414 1196.384399,1344.258057 1181.187866,1419.926636 
	C1176.785278,1441.848022 1174.342896,1463.937988 1176.388916,1486.320923 
	C1176.775269,1490.546631 1177.797729,1494.714111 1178.865723,1500.859497 
	C1181.958008,1497.856934 1184.413696,1496.255615 1185.792480,1493.996948 
	C1191.502075,1484.642578 1197.489868,1475.384033 1202.285034,1465.557983 
	C1222.706909,1423.710815 1243.312988,1381.937622 1262.776855,1339.642822 
	C1289.745483,1281.039917 1315.970093,1222.090942 1342.102539,1163.108276 
	C1368.101440,1104.426636 1394.355713,1045.836060 1418.913330,986.549133 
	C1428.140869,964.272156 1434.103271,940.412231 1439.315796,916.780151 
	C1443.057373,899.817383 1451.879150,890.232239 1468.190552,886.789124 
	C1480.197632,884.254578 1492.210449,881.145691 1504.375610,880.105957 
	C1521.546509,878.638306 1538.859375,878.511719 1556.113647,878.455994 
	C1567.174683,878.420288 1578.010742,880.919678 1587.737549,886.304993 
	C1592.229614,888.792053 1596.263062,892.573303 1599.617920,896.521179 
	C1603.179810,900.712830 1603.755615,905.787109 1601.842163,911.444153 
	C1595.240479,930.963928 1588.759888,950.536194 1582.810303,970.262451 
	C1574.613159,997.440063 1568.972046,1025.231934 1570.516724,1053.711426 
	C1572.793213,1095.687988 1578.068726,1137.152344 1599.113403,1174.825562 
	C1603.759155,1183.142090 1607.758911,1191.819458 1612.727661,1201.660767 
	C1623.990723,1182.787354 1634.806519,1165.624023 1644.681030,1147.935303 
	C1673.214844,1096.820801 1702.093262,1045.875854 1729.367554,994.090637 
	C1742.967651,968.268311 1754.296509,941.119202 1764.846924,913.871033 
	C1771.039185,897.878418 1773.465698,880.452820 1778.001099,863.784790 
	C1780.967529,852.882019 1785.004883,842.269714 1787.939819,831.359741 
	C1789.946533,823.900452 1794.258423,818.605408 1801.206055,816.306641 
	C1813.148560,812.355164 1825.213501,808.399414 1837.532715,806.046021 
	C1857.828369,802.168762 1878.509888,801.538635 1899.135742,802.447388 
	C1911.778076,803.004456 1924.291016,804.897339 1935.500732,811.623596 
	C1947.550659,818.854065 1950.337402,826.584534 1946.121094,840.110901 
	C1938.503906,864.547791 1930.581421,888.906555 1923.726562,913.559326 
	C1917.276367,936.757568 1914.768311,960.706970 1916.515991,984.691833 
	C1919.499756,1025.638916 1925.890137,1065.824463 1946.297852,1102.566040 
	C1956.294312,1120.563477 1964.929443,1139.317139 1974.589355,1158.541626 
	C1985.646362,1153.813232 1996.197144,1149.193359 2006.831055,1144.773071 
	C2045.404175,1128.739014 2085.463135,1118.108398 2126.707275,1111.684448 
	C2164.986816,1105.722290 2203.507812,1103.903320 2242.075928,1106.476562 
	C2323.207031,1111.889893 2398.136475,1134.978516 2462.447998,1186.791382 
	C2493.405029,1211.732178 2518.444336,1241.669556 2536.653320,1277.038086 
	C2546.579346,1296.317749 2553.742188,1316.705688 2557.999023,1338.053589 
	C2558.495117,1340.539673 2559.819336,1342.860596 2561.379883,1344.628906 
	C2562.000000,1360.041870 2562.000000,1376.083618 2561.590820,1393.321777 
	C2561.039062,1394.809326 2560.799072,1395.094849 2560.781250,1395.393311 
	C2560.763428,1395.691040 2560.891602,1396.164917 2561.097168,1396.262329 
	C2561.309326,1396.362671 2561.691895,1396.102417 2562.000000,1396.000000 
	C2562.000000,1402.722534 2562.000000,1409.445190 2561.389160,1416.455811 
	C2560.051514,1417.821167 2558.898438,1418.812256 2558.660645,1419.988403 
	C2551.680908,1454.482666 2534.310303,1482.917114 2508.764893,1506.784058 
	C2491.286865,1523.113525 2471.851318,1536.327759 2449.300293,1544.384033 
	C2442.571533,1546.787964 2435.085938,1547.312256 2427.881104,1548.055664 
	C2423.593506,1548.498169 2420.041504,1546.064453 2418.532715,1541.913818 
	C2416.990723,1537.672119 2416.812988,1533.183105 2420.696289,1529.943604 
	C2424.764160,1526.550293 2428.993408,1523.281860 2433.464355,1520.452026 
	C2453.334473,1507.875854 2471.255127,1493.158325 2484.799316,1473.709961 
	C2502.968750,1447.620361 2511.998535,1418.948364 2507.083496,1387.032227 
	C2499.711670,1339.163452 2475.409180,1300.901001 2439.271240,1269.467285 
	C2407.249268,1241.613770 2369.891846,1223.957397 2329.663086,1211.914307 
	C2295.483398,1201.682129 2260.469482,1196.093994 2224.859375,1193.501099 
	C2193.937500,1191.249634 2163.145264,1191.149658 2132.222900,1193.509277 
	C2098.562012,1196.078247 2065.844238,1203.011353 2033.637451,1212.637573 
	C2023.237305,1215.746216 2013.209106,1220.099121 2002.828125,1223.950562 
	C2005.251465,1231.146606 2007.267700,1237.113159 2009.270386,1243.084351 
	C2016.483521,1264.591675 2021.661865,1286.635254 2023.484253,1309.199951 
	C2026.492920,1346.451660 2016.423584,1380.373169 1994.592773,1410.672363 
	C1974.721191,1438.252319 1949.732910,1460.547241 1922.096191,1480.083618 
	C1887.669189,1504.419678 1848.881226,1519.147095 1809.024780,1531.416626 
	C1797.607300,1534.931519 1785.670044,1536.348999 1773.718018,1534.130615 
	C1751.968140,1530.093750 1735.495117,1519.083862 1727.521118,1497.627686 
	C1723.182251,1485.952759 1721.434326,1473.666382 1722.494629,1461.353149 
	C1724.616333,1436.713013 1730.235962,1412.776855 1740.231567,1390.082153 
	C1765.508667,1332.692993 1804.550781,1285.594849 1850.419800,1243.674316 
	C1857.468018,1237.232788 1864.649536,1230.937134 1872.672363,1223.767212 
	C1835.566528,1161.816406 1815.735474,1094.248291 1802.639526,1022.234558 
	C1800.214600,1026.074951 1798.904175,1027.854248 1797.897095,1029.791016 
	C1788.381348,1048.093140 1779.371948,1066.675537 1769.339478,1084.688599 
	C1751.051636,1117.523315 1732.842773,1150.436157 1713.337891,1182.549194 
	C1694.164551,1214.116577 1673.516479,1244.792725 1653.247681,1275.684204 
	C1650.777588,1279.448730 1650.074219,1282.134644 1651.822632,1286.499023 
	C1657.257446,1300.066284 1662.382324,1313.784302 1666.954590,1327.665283 
	C1677.797241,1360.582520 1681.819824,1394.438599 1677.422119,1428.819946 
	C1671.352417,1476.272705 1648.150269,1514.430420 1611.689697,1544.916138 
	C1577.916748,1573.154663 1538.478149,1590.466553 1497.242432,1604.217163 
	C1474.113037,1611.929810 1450.062866,1615.492798 1425.887451,1617.421753 
	C1410.008301,1618.688721 1393.886353,1618.486816 1378.328735,1614.094238 
	C1359.070923,1608.656860 1340.453979,1592.054443 1347.676758,1562.936890 
	C1350.983398,1549.606567 1358.110474,1538.433105 1366.468384,1528.072266 
	C1391.723633,1496.764526 1416.984741,1465.447388 1442.941162,1434.723267 
	C1472.552246,1399.673340 1501.585815,1364.216187 1528.614258,1327.107788 
	C1533.629395,1320.222290 1534.427979,1314.796631 1530.559814,1307.410889 
	C1523.306030,1293.561157 1517.115112,1279.154053 1509.843628,1265.314331 
	C1484.014282,1216.152588 1471.004028,1162.932251 1459.773193,1109.117065 
	C1459.175903,1106.255127 1458.366821,1103.437622 1457.167969,1098.647461 
	C1455.062988,1103.499634 1453.843628,1106.194946 1452.715942,1108.928101 
	C1443.205078,1131.980713 1433.796021,1155.076050 1424.195923,1178.091431 
	C1391.529053,1256.406616 1356.799316,1333.773315 1317.298462,1408.920410 
	C1296.868286,1447.787109 1276.491699,1486.687500 1255.517578,1525.260864 
	C1238.060059,1557.366821 1221.250854,1589.976074 1195.543335,1616.736938 
	C1184.184448,1628.561035 1172.067139,1639.426514 1157.425537,1646.982300 
	C1132.665771,1659.759399 1103.231201,1654.514648 1086.072754,1633.037964 
	C1079.168579,1624.396118 1073.877808,1613.851440 1070.207764,1603.349854 
	C1057.077881,1565.779785 1058.574829,1526.778320 1060.943970,1487.839722 
	C1061.548584,1477.901855 1062.788086,1468.002563 1063.735962,1458.085571 
	C1061.071655,1460.787720 1059.664795,1463.723145 1058.416626,1466.724487 
	C1037.329346,1517.429077 1015.074219,1567.604370 988.656616,1615.792480 
	C981.646851,1628.578979 973.627930,1640.951782 964.858215,1652.600586 
	C952.604980,1668.876709 937.242615,1681.991699 916.627197,1685.879150 
	C904.677551,1688.132446 892.148743,1688.470703 879.948975,1687.977661 
	C860.296570,1687.183594 843.321838,1679.552612 829.476440,1665.065186 
	C815.968567,1650.931030 805.724915,1634.633789 797.028198,1617.360229 
	C777.870728,1579.309448 765.835327,1538.911255 760.073792,1496.807739 
	C757.469482,1477.776245 755.685669,1458.405029 756.109985,1439.245117 
	C756.623047,1416.077026 759.298584,1392.900513 762.075684,1369.852783 
	C765.774231,1339.157227 771.692261,1308.833740 780.696289,1279.188110 
	C783.168640,1271.048218 785.707092,1262.928223 788.777283,1252.977295 
	C739.557495,1279.290527 693.269775,1306.447632 647.173950,1334.129272 
	C649.780334,1339.953979 652.004578,1344.763916 654.098633,1349.629883 
	C671.033630,1388.984253 677.321228,1430.629395 679.472290,1472.942627 
	C680.754456,1498.165527 679.464844,1523.421021 676.441040,1548.593628 
	C669.826904,1603.654541 654.217407,1655.839233 627.888611,1704.717529 
	C608.160034,1741.342896 582.851746,1773.881226 553.360046,1802.992065 
	C531.326111,1824.741577 507.078705,1844.006836 480.681000,1860.390381 
	C441.943970,1884.432251 400.756622,1902.648560 356.093719,1912.476929 
	C345.724762,1914.758667 335.217834,1916.410034 324.788544,1918.424683 
	C322.976166,1918.774780 319.913239,1918.470459 322.000000,1922.000000 
	C319.866669,1922.000000 317.733307,1922.000000 315.024170,1921.334717 
	C313.632202,1921.112915 312.816071,1921.556396 312.000000,1922.000000 
	C283.958221,1922.000000 255.916428,1922.000000 227.554443,1921.338135 
	C225.134689,1919.883301 223.096268,1918.791016 220.925339,1918.347534 
	C209.541748,1916.022461 198.071823,1914.099487 186.732101,1911.584961 
	C171.530060,1908.213989 158.206696,1901.164062 146.307709,1890.974243 
	C126.093933,1873.663696 112.207794,1851.993042 102.098503,1827.791870 
	C87.430321,1792.676758 83.504173,1756.005981 87.673607,1718.342041 
	C92.200348,1677.450317 104.830849,1639.174438 125.735046,1603.793701 
	C146.244751,1569.080566 173.619629,1540.026611 203.407623,1513.275391 
	C255.330170,1466.645874 312.357086,1426.902344 372.516327,1391.798828 
	C410.695160,1369.521240 449.982483,1349.144409 488.749756,1327.873413 
	C493.773254,1325.117065 498.659332,1322.110352 504.609772,1318.635254 
	C494.371948,1310.391479 485.679199,1302.656372 476.262817,1295.935059 
	C431.860077,1264.241211 387.391937,1232.635010 342.692474,1201.361572 
	C295.266327,1168.180542 248.057129,1134.718140 203.490067,1097.723511 
	C165.825409,1066.458374 129.891953,1033.359009 98.254623,995.848022 
	C53.713909,943.037964 18.248606,885.537354 5.344023,816.331177 
	C5.166545,815.379333 3.155347,814.769470 2.000001,814.000000 
	C2.000000,797.958191 2.000000,781.916382 2.717219,764.880188 
	C4.136547,760.545776 4.838656,757.205811 5.608091,753.028442 
	C7.521070,742.741455 9.000146,733.202759 11.272681,723.856873 
	C24.634098,668.907410 49.188576,618.930298 79.719048,571.715515 
	C122.297119,505.869385 174.719116,448.484436 232.663620,396.050629 
	C274.635712,358.070190 319.412659,323.565186 366.024170,291.424500 
	C452.569061,231.747940 544.220947,181.117538 639.568176,137.096283 
	C694.526855,111.722206 750.553589,88.889229 807.460327,68.195122 
	C892.172180,37.389702 979.017700,15.963394 1068.915527,7.632483 
	C1076.514160,6.928315 1084.120117,6.304893 1091.720459,5.618572 
	C1094.384766,5.377987 1094.381592,5.343123 1096.000000,2.000000 
	C1140.041748,2.000000 1184.083618,2.000000 1229.062744,2.000000 
M277.254578,1606.329834 
	C267.534485,1623.068604 259.171967,1640.438599 253.611969,1659.020752 
	C246.717484,1682.062866 241.541214,1705.318237 245.996552,1729.631348 
	C250.245605,1752.818604 261.681885,1769.637695 285.847198,1775.445801 
	C298.304047,1778.439819 311.007599,1778.615234 323.548615,1777.145752 
	C350.235718,1774.018555 375.330505,1765.323730 399.184906,1753.137695 
	C435.439911,1734.616943 467.115875,1710.141235 494.002380,1679.501587 
	C551.382385,1614.111328 582.642395,1539.206909 578.537292,1450.952881 
	C577.652344,1431.927612 575.052246,1413.271484 571.638245,1394.654663 
	C570.343323,1387.593506 568.168457,1380.693481 566.114624,1372.619385 
	C551.262573,1381.543701 537.640686,1389.760498 523.988403,1397.926636 
	C462.477997,1434.719116 403.725525,1475.381470 349.541595,1522.430420 
	C321.759552,1546.554077 296.699768,1573.063965 277.254578,1606.329834 
M898.757568,1509.905518 
	C902.276001,1515.865112 905.193176,1522.305420 909.471863,1527.657104 
	C914.314636,1533.714355 919.680481,1534.107788 926.190369,1529.875488 
	C929.481995,1527.735718 932.653992,1525.035034 935.025696,1521.934326 
	C940.270020,1515.078247 945.882629,1508.265991 949.727600,1500.622192 
	C961.372681,1477.472168 973.514465,1454.444092 983.167664,1430.445435 
	C1005.619141,1374.628784 1027.289673,1318.480225 1048.196777,1262.066040 
	C1064.367798,1218.431519 1078.652832,1174.100830 1088.814453,1128.603516 
	C1091.410767,1116.979248 1093.046021,1105.073364 1094.166260,1093.206543 
	C1095.129761,1082.999146 1089.383057,1075.173950 1076.615601,1075.472534 
	C1064.760132,1075.749878 1054.488281,1079.993896 1044.664917,1085.628662 
	C1021.238220,1099.066406 1001.484802,1116.869751 986.297791,1139.138184 
	C973.567749,1157.804199 961.537598,1177.016602 950.318787,1196.628540 
	C931.777832,1229.040527 916.624084,1263.039185 906.120728,1298.980713 
	C892.687988,1344.946533 886.287842,1391.824951 887.625732,1439.747559 
	C888.277954,1463.109253 890.880981,1486.125244 898.757568,1509.905518 
M1906.897705,1369.690674 
	C1918.213013,1338.348022 1920.350342,1306.846924 1908.896729,1272.527466 
	C1894.464966,1288.229736 1880.942871,1301.918579 1868.591675,1316.593140 
	C1842.521240,1347.567383 1826.098755,1383.763672 1813.782959,1421.971436 
	C1811.961914,1427.621338 1810.753296,1433.535645 1809.939453,1439.421387 
	C1809.320801,1443.894165 1809.071411,1448.763550 1814.484131,1452.202881 
	C1855.171997,1436.617676 1889.031738,1413.386963 1906.897705,1369.690674 
M1570.267578,1393.509766 
	C1569.359253,1393.059082 1567.847900,1392.029053 1567.636963,1392.248779 
	C1565.808472,1394.151245 1564.197266,1396.265381 1562.552002,1398.340820 
	C1549.151001,1415.247192 1536.350220,1432.673950 1522.226685,1448.953125 
	C1498.747681,1476.015991 1474.411255,1502.334717 1450.467651,1528.995361 
	C1448.365723,1531.335571 1445.400757,1533.406494 1446.761475,1537.858276 
	C1455.980591,1539.149780 1463.815308,1535.019653 1470.942505,1530.551025 
	C1498.367065,1513.355835 1523.782227,1493.670776 1543.288330,1467.380859 
	C1559.228882,1445.896484 1570.425415,1422.546875 1570.267578,1393.509766 
z"/>
<path fill="transparent" opacity="1.000000" stroke="none" 
	d="
M322.937317,1922.000000 
	C319.913239,1918.470459 322.976166,1918.774780 324.788544,1918.424683 
	C335.217834,1916.410034 345.724762,1914.758667 356.093719,1912.476929 
	C400.756622,1902.648560 441.943970,1884.432251 480.681000,1860.390381 
	C507.078705,1844.006836 531.326111,1824.741577 553.360046,1802.992065 
	C582.851746,1773.881226 608.160034,1741.342896 627.888611,1704.717529 
	C654.217407,1655.839233 669.826904,1603.654541 676.441040,1548.593628 
	C679.464844,1523.421021 680.754456,1498.165527 679.472290,1472.942627 
	C677.321228,1430.629395 671.033630,1388.984253 654.098633,1349.629883 
	C652.004578,1344.763916 649.780334,1339.953979 647.173950,1334.129272 
	C693.269775,1306.447632 739.557495,1279.290527 788.777283,1252.977295 
	C785.707092,1262.928223 783.168640,1271.048218 780.696289,1279.188110 
	C771.692261,1308.833740 765.774231,1339.157227 762.075684,1369.852783 
	C759.298584,1392.900513 756.623047,1416.077026 756.109985,1439.245117 
	C755.685669,1458.405029 757.469482,1477.776245 760.073792,1496.807739 
	C765.835327,1538.911255 777.870728,1579.309448 797.028198,1617.360229 
	C805.724915,1634.633789 815.968567,1650.931030 829.476440,1665.065186 
	C843.321838,1679.552612 860.296570,1687.183594 879.948975,1687.977661 
	C892.148743,1688.470703 904.677551,1688.132446 916.627197,1685.879150 
	C937.242615,1681.991699 952.604980,1668.876709 964.858215,1652.600586 
	C973.627930,1640.951782 981.646851,1628.578979 988.656616,1615.792480 
	C1015.074219,1567.604370 1037.329346,1517.429077 1058.416626,1466.724487 
	C1059.664795,1463.723145 1061.071655,1460.787720 1063.735962,1458.085571 
	C1062.788086,1468.002563 1061.548584,1477.901855 1060.943970,1487.839722 
	C1058.574829,1526.778320 1057.077881,1565.779785 1070.207764,1603.349854 
	C1073.877808,1613.851440 1079.168579,1624.396118 1086.072754,1633.037964 
	C1103.231201,1654.514648 1132.665771,1659.759399 1157.425537,1646.982300 
	C1172.067139,1639.426514 1184.184448,1628.561035 1195.543335,1616.736938 
	C1221.250854,1589.976074 1238.060059,1557.366821 1255.517578,1525.260864 
	C1276.491699,1486.687500 1296.868286,1447.787109 1317.298462,1408.920410 
	C1356.799316,1333.773315 1391.529053,1256.406616 1424.195923,1178.091431 
	C1433.796021,1155.076050 1443.205078,1131.980713 1452.715942,1108.928101 
	C1453.843628,1106.194946 1455.062988,1103.499634 1457.167969,1098.647461 
	C1458.366821,1103.437622 1459.175903,1106.255127 1459.773193,1109.117065 
	C1471.004028,1162.932251 1484.014282,1216.152588 1509.843628,1265.314331 
	C1517.115112,1279.154053 1523.306030,1293.561157 1530.559814,1307.410889 
	C1534.427979,1314.796631 1533.629395,1320.222290 1528.614258,1327.107788 
	C1501.585815,1364.216187 1472.552246,1399.673340 1442.941162,1434.723267 
	C1416.984741,1465.447388 1391.723633,1496.764526 1366.468384,1528.072266 
	C1358.110474,1538.433105 1350.983398,1549.606567 1347.676758,1562.936890 
	C1340.453979,1592.054443 1359.070923,1608.656860 1378.328735,1614.094238 
	C1393.886353,1618.486816 1410.008301,1618.688721 1425.887451,1617.421753 
	C1450.062866,1615.492798 1474.113037,1611.929810 1497.242432,1604.217163 
	C1538.478149,1590.466553 1577.916748,1573.154663 1611.689697,1544.916138 
	C1648.150269,1514.430420 1671.352417,1476.272705 1677.422119,1428.819946 
	C1681.819824,1394.438599 1677.797241,1360.582520 1666.954590,1327.665283 
	C1662.382324,1313.784302 1657.257446,1300.066284 1651.822632,1286.499023 
	C1650.074219,1282.134644 1650.777588,1279.448730 1653.247681,1275.684204 
	C1673.516479,1244.792725 1694.164551,1214.116577 1713.337891,1182.549194 
	C1732.842773,1150.436157 1751.051636,1117.523315 1769.339478,1084.688599 
	C1779.371948,1066.675537 1788.381348,1048.093140 1797.897095,1029.791016 
	C1798.904175,1027.854248 1800.214600,1026.074951 1802.639526,1022.234558 
	C1815.735474,1094.248291 1835.566528,1161.816406 1872.672363,1223.767212 
	C1864.649536,1230.937134 1857.468018,1237.232788 1850.419800,1243.674316 
	C1804.550781,1285.594849 1765.508667,1332.692993 1740.231567,1390.082153 
	C1730.235962,1412.776855 1724.616333,1436.713013 1722.494629,1461.353149 
	C1721.434326,1473.666382 1723.182251,1485.952759 1727.521118,1497.627686 
	C1735.495117,1519.083862 1751.968140,1530.093750 1773.718018,1534.130615 
	C1785.670044,1536.348999 1797.607300,1534.931519 1809.024780,1531.416626 
	C1848.881226,1519.147095 1887.669189,1504.419678 1922.096191,1480.083618 
	C1949.732910,1460.547241 1974.721191,1438.252319 1994.592773,1410.672363 
	C2016.423584,1380.373169 2026.492920,1346.451660 2023.484253,1309.199951 
	C2021.661865,1286.635254 2016.483521,1264.591675 2009.270386,1243.084351 
	C2007.267700,1237.113159 2005.251465,1231.146606 2002.828125,1223.950562 
	C2013.209106,1220.099121 2023.237305,1215.746216 2033.637451,1212.637573 
	C2065.844238,1203.011353 2098.562012,1196.078247 2132.222900,1193.509277 
	C2163.145264,1191.149658 2193.937500,1191.249634 2224.859375,1193.501099 
	C2260.469482,1196.093994 2295.483398,1201.682129 2329.663086,1211.914307 
	C2369.891846,1223.957397 2407.249268,1241.613770 2439.271240,1269.467285 
	C2475.409180,1300.901001 2499.711670,1339.163452 2507.083496,1387.032227 
	C2511.998535,1418.948364 2502.968750,1447.620361 2484.799316,1473.709961 
	C2471.255127,1493.158325 2453.334473,1507.875854 2433.464355,1520.452026 
	C2428.993408,1523.281860 2424.764160,1526.550293 2420.696289,1529.943604 
	C2416.812988,1533.183105 2416.990723,1537.672119 2418.532715,1541.913818 
	C2420.041504,1546.064453 2423.593506,1548.498169 2427.881104,1548.055664 
	C2435.085938,1547.312256 2442.571533,1546.787964 2449.300293,1544.384033 
	C2471.851318,1536.327759 2491.286865,1523.113525 2508.764893,1506.784058 
	C2534.310303,1482.917114 2551.680908,1454.482666 2558.660645,1419.988403 
	C2558.898438,1418.812256 2560.051514,1417.821167 2561.389160,1417.371948 
	C2562.000000,1585.946411 2562.000000,1753.892944 2562.000000,1922.000000 
	C1815.958252,1922.000000 1069.916382,1922.000000 322.937317,1922.000000 
z"/>
<path fill="transparent" opacity="1.000000" stroke="none" 
	d="
M1095.062744,2.000000 
	C1094.381592,5.343123 1094.384766,5.377987 1091.720459,5.618572 
	C1084.120117,6.304893 1076.514160,6.928315 1068.915527,7.632483 
	C979.017700,15.963394 892.172180,37.389702 807.460327,68.195122 
	C750.553589,88.889229 694.526855,111.722206 639.568176,137.096283 
	C544.220947,181.117538 452.569061,231.747940 366.024170,291.424500 
	C319.412659,323.565186 274.635712,358.070190 232.663620,396.050629 
	C174.719116,448.484436 122.297119,505.869385 79.719048,571.715515 
	C49.188576,618.930298 24.634098,668.907410 11.272681,723.856873 
	C9.000146,733.202759 7.521070,742.741455 5.178869,753.326172 
	C3.788223,754.974182 2.894126,755.487122 2.000014,756.000000 
	C2.000000,504.785675 2.000000,253.571381 2.000000,2.000000 
	C366.041718,2.000000 730.083557,2.000000 1095.062744,2.000000 
z"/>
<path fill="transparent" opacity="1.000000" stroke="none" 
	d="
M2.000001,814.937317 
	C3.155347,814.769470 5.166545,815.379333 5.344023,816.331177 
	C18.248606,885.537354 53.713909,943.037964 98.254623,995.848022 
	C129.891953,1033.359009 165.825409,1066.458374 203.490067,1097.723511 
	C248.057129,1134.718140 295.266327,1168.180542 342.692474,1201.361572 
	C387.391937,1232.635010 431.860077,1264.241211 476.262817,1295.935059 
	C485.679199,1302.656372 494.371948,1310.391479 504.609772,1318.635254 
	C498.659332,1322.110352 493.773254,1325.117065 488.749756,1327.873413 
	C449.982483,1349.144409 410.695160,1369.521240 372.516327,1391.798828 
	C312.357086,1426.902344 255.330170,1466.645874 203.407623,1513.275391 
	C173.619629,1540.026611 146.244751,1569.080566 125.735046,1603.793701 
	C104.830849,1639.174438 92.200348,1677.450317 87.673607,1718.342041 
	C83.504173,1756.005981 87.430321,1792.676758 102.098503,1827.791870 
	C112.207794,1851.993042 126.093933,1873.663696 146.307709,1890.974243 
	C158.206696,1901.164062 171.530060,1908.213989 186.732101,1911.584961 
	C198.071823,1914.099487 209.541748,1916.022461 220.925339,1918.347534 
	C223.096268,1918.791016 225.134689,1919.883301 226.617126,1921.338135 
	C151.382385,1922.000000 76.764786,1922.000000 2.000000,1922.000000 
	C2.000000,1553.291504 2.000000,1184.583130 2.000001,814.937317 
z"/>
<path fill="transparent" opacity="1.000000" stroke="none" 
	d="
M2.000014,756.800049 
	C2.894126,755.487122 3.788223,754.974182 5.111543,754.163574 
	C4.838656,757.205811 4.136547,760.545776 2.717219,763.942871 
	C2.000000,761.866638 2.000000,759.733337 2.000014,756.800049 
z"/>
<path fill="transparent" opacity="1.000000" stroke="none" 
	d="
M2562.000000,1395.500000 
	C2561.691895,1396.102417 2561.309326,1396.362671 2561.097168,1396.262329 
	C2560.891602,1396.164917 2560.763428,1395.691040 2560.781250,1395.393311 
	C2560.799072,1395.094849 2561.039062,1394.809326 2561.590820,1394.259033 
	C2562.000000,1394.000000 2562.000000,1395.000000 2562.000000,1395.500000 
z"/>
<path fill="transparent" opacity="1.000000" stroke="none" 
	d="
M312.500000,1922.000000 
	C312.816071,1921.556396 313.632202,1921.112915 314.224182,1921.334717 
	C314.000000,1922.000000 313.000000,1922.000000 312.500000,1922.000000 
z"/>
<path fill="transparent" opacity="1.000000" stroke="none" 
	d="
M277.663635,1605.723389 
	C296.699768,1573.063965 321.759552,1546.554077 349.541595,1522.430420 
	C403.725525,1475.381470 462.477997,1434.719116 523.988403,1397.926636 
	C537.640686,1389.760498 551.262573,1381.543701 566.114624,1372.619385 
	C568.168457,1380.693481 570.343323,1387.593506 571.638245,1394.654663 
	C575.052246,1413.271484 577.652344,1431.927612 578.537292,1450.952881 
	C582.642395,1539.206909 551.382385,1614.111328 494.002380,1679.501587 
	C467.115875,1710.141235 435.439911,1734.616943 399.184906,1753.137695 
	C375.330505,1765.323730 350.235718,1774.018555 323.548615,1777.145752 
	C311.007599,1778.615234 298.304047,1778.439819 285.847198,1775.445801 
	C261.681885,1769.637695 250.245605,1752.818604 245.996552,1729.631348 
	C241.541214,1705.318237 246.717484,1682.062866 253.611969,1659.020752 
	C259.171967,1640.438599 267.534485,1623.068604 277.663635,1605.723389 
z"/>
<path fill="transparent" opacity="1.000000" stroke="none" 
	d="
M898.492310,1509.168823 
	C890.880981,1486.125244 888.277954,1463.109253 887.625732,1439.747559 
	C886.287842,1391.824951 892.687988,1344.946533 906.120728,1298.980713 
	C916.624084,1263.039185 931.777832,1229.040527 950.318787,1196.628540 
	C961.537598,1177.016602 973.567749,1157.804199 986.297791,1139.138184 
	C1001.484802,1116.869751 1021.238220,1099.066406 1044.664917,1085.628662 
	C1054.488281,1079.993896 1064.760132,1075.749878 1076.615601,1075.472534 
	C1089.383057,1075.173950 1095.129761,1082.999146 1094.166260,1093.206543 
	C1093.046021,1105.073364 1091.410767,1116.979248 1088.814453,1128.603516 
	C1078.652832,1174.100830 1064.367798,1218.431519 1048.196777,1262.066040 
	C1027.289673,1318.480225 1005.619141,1374.628784 983.167664,1430.445435 
	C973.514465,1454.444092 961.372681,1477.472168 949.727600,1500.622192 
	C945.882629,1508.265991 940.270020,1515.078247 935.025696,1521.934326 
	C932.653992,1525.035034 929.481995,1527.735718 926.190369,1529.875488 
	C919.680481,1534.107788 914.314636,1533.714355 909.471863,1527.657104 
	C905.193176,1522.305420 902.276001,1515.865112 898.492310,1509.168823 
z"/>
<path fill="transparent" opacity="1.000000" stroke="none" 
	d="
M1906.566895,1370.386719 
	C1889.031738,1413.386963 1855.171997,1436.617676 1814.484131,1452.202881 
	C1809.071411,1448.763550 1809.320801,1443.894165 1809.939453,1439.421387 
	C1810.753296,1433.535645 1811.961914,1427.621338 1813.782959,1421.971436 
	C1826.098755,1383.763672 1842.521240,1347.567383 1868.591675,1316.593140 
	C1880.942871,1301.918579 1894.464966,1288.229736 1908.896729,1272.527466 
	C1920.350342,1306.846924 1918.213013,1338.348022 1906.566895,1370.386719 
z"/>
<path fill="transparent" opacity="1.000000" stroke="none" 
	d="
M1570.308594,1394.269043 
	C1570.425415,1422.546875 1559.228882,1445.896484 1543.288330,1467.380859 
	C1523.782227,1493.670776 1498.367065,1513.355835 1470.942505,1530.551025 
	C1463.815308,1535.019653 1455.980591,1539.149780 1446.761475,1537.858276 
	C1445.400757,1533.406494 1448.365723,1531.335571 1450.467651,1528.995361 
	C1474.411255,1502.334717 1498.747681,1476.015991 1522.226685,1448.953125 
	C1536.350220,1432.673950 1549.151001,1415.247192 1562.552002,1398.340820 
	C1564.197266,1396.265381 1565.808472,1394.151245 1567.636963,1392.248779 
	C1567.847900,1392.029053 1569.359253,1393.059082 1570.308594,1394.269043 
z"/>
</svg>